<svg width="81" height="19" viewBox="0 0 81 19" fill="none" xmlns="http://www.w3.org/2000/svg">
<path fill-rule="evenodd" clip-rule="evenodd" d="M1.76136 10.6874C1.76136 10.8427 1.78932 10.9973 1.8165 11.1386C2.05262 12 2.75942 12.5926 3.64641 12.5926C4.92175 12.5926 5.68447 11.534 5.68447 9.96738C5.68447 8.59806 4.99087 7.42602 3.68835 7.42602C2.8565 7.42602 2.07981 8.00466 1.83049 8.95068C1.8033 9.09204 1.76136 9.26136 1.76136 9.45864V10.6874ZM0.555146 3.40272H1.76136V7.69476H1.78932C2.21883 6.93204 2.99476 6.43806 4.07592 6.43806C5.73961 6.43806 6.91786 7.84932 6.90388 9.92466C6.90388 12.3666 5.3932 13.5806 3.89573 13.5806C2.92563 13.5806 2.14971 13.2 1.65029 12.2967H1.60913L1.5532 13.426H0.5C0.527961 12.96 0.555146 12.268 0.555146 11.6614V3.40272Z" fill="#D2272C"/>
<path fill-rule="evenodd" clip-rule="evenodd" d="M11.9773 9.93864C10.6468 9.91068 9.13534 10.1507 9.13534 11.4781C9.13534 12.2819 9.66194 12.6633 10.2856 12.6633C11.1594 12.6633 11.714 12.0986 11.9082 11.52C11.9493 11.3926 11.9773 11.252 11.9773 11.1247V9.93864ZM13.1555 11.788C13.1555 12.3814 13.1827 12.96 13.2658 13.426H12.1575L12.0604 12.5647H12.0184C11.6441 13.1014 10.9241 13.5806 9.96718 13.5806C8.60874 13.5806 7.91592 12.6066 7.91592 11.6186C7.91592 9.96738 9.35748 9.06408 11.9493 9.07806V8.9367C11.9493 8.37204 11.7971 7.35534 10.4247 7.35534C9.80097 7.35534 9.14932 7.5534 8.67786 7.86408L8.40058 7.04544C8.95514 6.67806 9.75903 6.43806 10.6049 6.43806C12.6561 6.43806 13.1555 7.86408 13.1555 9.2334V11.788Z" fill="#D2272C"/>
<path fill-rule="evenodd" clip-rule="evenodd" d="M15.1237 8.44272C15.1237 7.7367 15.1097 7.15806 15.0685 6.5934H16.1497L16.2188 7.72272H16.2468C16.5792 7.0734 17.3551 6.43806 18.4643 6.43806C19.3932 6.43806 20.8348 7.00272 20.8348 9.34602V13.426H19.6146V9.48738C19.6146 8.38602 19.213 7.46874 18.0619 7.46874C17.2581 7.46874 16.6344 8.04738 16.4262 8.73942C16.3711 8.89476 16.3431 9.10602 16.3431 9.31806V13.426H15.1237V8.44272Z" fill="#D2272C"/>
<path fill-rule="evenodd" clip-rule="evenodd" d="M24.0223 9.72738H24.0503C24.2165 9.48738 24.4518 9.19068 24.6468 8.95068L26.615 6.5934H28.0837L25.4918 9.40272L28.4441 13.426H26.9614L24.6468 10.1507L24.0223 10.8567V13.426H22.8169V3.40272H24.0223V9.72738Z" fill="#D2272C"/>
<path fill-rule="evenodd" clip-rule="evenodd" d="M32.1567 4.61515C32.1567 5.12311 31.7839 5.54719 31.154 5.54719C30.5676 5.54719 30.1948 5.12311 30.1948 4.61515C30.1948 4.07922 30.5816 3.66913 31.1827 3.66913C31.7839 3.66913 32.1567 4.07922 32.1567 4.61515ZM28.5202 15.0617C29.0926 15.019 29.5509 14.8777 29.8367 14.5678C30.166 14.2284 30.295 13.6777 30.295 12.1817V6.53515H32.0565V12.6757C32.0565 14.1017 31.7839 14.9911 31.154 15.6117C30.5388 16.1771 29.5649 16.4163 28.6918 16.4163L28.5202 15.0617Z" fill="#332C2B"/>
<path fill-rule="evenodd" clip-rule="evenodd" d="M37.6254 10.0505C36.3796 10.0217 35.1913 10.2905 35.1913 11.3344C35.1913 12.0124 35.6355 12.3231 36.1932 12.3231C36.8953 12.3231 37.4103 11.8711 37.568 11.3771C37.6107 11.2497 37.6254 11.1091 37.6254 10.9957V10.0505ZM39.3435 11.7584C39.3435 12.379 39.3722 12.9864 39.4437 13.4097H37.8546L37.7396 12.6478H37.6969C37.2674 13.1837 36.5373 13.565 35.6355 13.565C34.232 13.565 33.4445 12.5631 33.4445 11.5184C33.4445 9.78175 35.0056 8.90641 37.5819 8.92117V8.80777C37.5819 8.35651 37.3963 7.60777 36.1652 7.60777C35.4779 7.60777 34.7617 7.81981 34.2895 8.11651L33.9462 6.98719C34.4612 6.67651 35.3629 6.37981 36.4658 6.37981C38.6988 6.37981 39.3435 7.77709 39.3435 9.27379V11.7584Z" fill="#332C2B"/>
<path fill-rule="evenodd" clip-rule="evenodd" d="M43.1369 4.77049V6.53515H44.8122V7.83379H43.1369V10.8691C43.1369 11.7017 43.3668 12.139 44.0394 12.139C44.3687 12.139 44.5264 12.1111 44.7268 12.0544L44.7555 13.3817C44.4977 13.4804 44.0394 13.5651 43.481 13.5651C42.8363 13.5651 42.2926 13.339 41.9633 12.9864C41.5913 12.5911 41.4188 11.9697 41.4188 11.0664V7.83379H40.4169V6.53515H41.4188V5.26447L43.1369 4.77049Z" fill="#332C2B"/>
<path fill-rule="evenodd" clip-rule="evenodd" d="M46.1435 13.4097V6.53515H47.919V13.4097H46.1435ZM48.0192 4.61515C48.0192 5.13786 47.6324 5.54719 47.0173 5.54719C46.4301 5.54719 46.0433 5.13786 46.0433 4.61515C46.0433 4.07922 46.4449 3.66913 47.0313 3.66913C47.6324 3.66913 48.0052 4.07922 48.0192 4.61515Z" fill="#332C2B"/>
<path fill-rule="evenodd" clip-rule="evenodd" d="M49.8087 8.58175C49.8087 7.79185 49.7948 7.12777 49.752 6.53515H51.2689L51.3404 7.55185H51.3839C51.7272 7.01515 52.3571 6.37981 53.5315 6.37981C54.4472 6.37981 55.1633 6.88777 55.4639 7.65049H55.4926C55.7357 7.26913 56.0223 6.98719 56.3517 6.78913C56.7377 6.52117 57.1819 6.37981 57.7544 6.37981C58.914 6.37981 60.0884 7.15651 60.0884 9.35845V13.4097H58.3703V9.61243C58.3703 8.46913 57.9695 7.79185 57.1245 7.79185C56.5233 7.79185 56.0798 8.21515 55.8934 8.70913C55.8507 8.87845 55.8072 9.09049 55.8072 9.28777V13.4097H54.0891V9.42913C54.0891 8.46913 53.7031 7.79185 52.8868 7.79185C52.2282 7.79185 51.7847 8.29981 51.627 8.77981C51.5555 8.94913 51.5268 9.14641 51.5268 9.34447V13.4097H49.8087V8.58175Z" fill="#332C2B"/>
<path fill-rule="evenodd" clip-rule="evenodd" d="M40.9357 15.5177C40.9357 15.5177 49.5882 18.1833 56.0278 16.6913C62.4619 15.2008 66.5054 12.7363 71.3171 5.68155C74.6227 0.900194 76.0837 0 76.0837 0C76.0837 0 75.8918 4.17631 73.1027 8.07301C70.712 11.3049 69.4429 12.8396 69.4429 12.8396L58.8612 18.0637C58.8612 18.0637 53.1058 19.141 40.9357 15.5177Z" fill="#E5252A"/>
<path fill-rule="evenodd" clip-rule="evenodd" d="M47.2907 17.134C47.2907 17.134 53.9027 18.3293 62.5357 14.6322C65.6503 13.2986 66.82 12.7169 73.088 7.98447C75.9214 5.84388 79.9454 3.63029 79.9454 3.63029C79.9454 3.63029 78.9909 6.3899 75.1392 9.81437C72.594 12.2555 72.8744 13.3274 72.8744 13.3274L61.6083 17.2738C61.6083 17.2738 57.3559 18.4179 47.2907 17.134Z" fill="#D1272C"/>
<path fill-rule="evenodd" clip-rule="evenodd" d="M53.7365 17.1783C53.7365 17.1783 56.4705 16.7138 59.4973 15.8594C63.874 14.6252 69.0515 12.7728 73.2355 10.5817C75.3404 9.47884 80.5 8.0132 80.5 8.0132C80.5 8.0132 78.8068 10.3821 75.2868 12.3969C73.3994 13.8369 71.7008 14.3449 71.7008 14.3449L66.9388 15.9829C66.9388 15.9829 61.199 17.9355 53.7365 17.1783Z" fill="#BB292D"/>
<path fill-rule="evenodd" clip-rule="evenodd" d="M53.2091 16.9056C53.2091 16.9056 54.0332 17.0827 56.8542 16.5064C61.3186 15.5953 65.6386 14.5452 69.7746 13.3041C73.6115 12.153 78.1202 12.0575 78.1202 12.0575C78.1202 12.0575 75.8476 13.2676 72.7485 14.5515C70.8612 15.3701 69.2658 15.6489 69.2658 15.6489L64.5039 16.5794C64.5039 16.5794 60.6716 17.3359 53.2091 16.9056Z" fill="#9D272A"/>
<path fill-rule="evenodd" clip-rule="evenodd" d="M57.3116 18.6392C51.7738 18.7317 45.9773 17.5324 40.7307 15.4517C40.7307 15.4517 48.6779 17.5767 56.6181 16.5507C61.2371 15.9542 64.9 15.0641 68.9264 14.6252C72.173 14.2711 75.5229 14.6105 75.5229 14.6105C75.5229 14.6105 67.9369 18.4621 57.3116 18.6392Z" fill="#8B2527"/>
</svg>
