<svg width="32" height="32" viewBox="0 0 32 32" fill="none" xmlns="http://www.w3.org/2000/svg">
<path d="M26.9951 0H4.99512C2.23369 0 -0.00488281 2.23858 -0.00488281 5V27C-0.00488281 29.7614 2.23369 32 4.99512 32H26.9951C29.7565 32 31.9951 29.7614 31.9951 27V5C31.9951 2.23858 29.7565 0 26.9951 0Z" fill="#1877F2"/>
<path d="M23.9951 16C23.9951 11.6 20.3951 8 15.9951 8C11.5951 8 7.99512 11.6 7.99512 16C7.99512 20 10.8951 23.3 14.6951 23.9V18.3H12.6951V16H14.6951V14.2C14.6951 12.2 15.8951 11.1 17.6951 11.1C18.5951 11.1 19.4951 11.3 19.4951 11.3V13.3H18.4951C17.4951 13.3 17.1951 13.9 17.1951 14.5V16H19.3951L18.9951 18.3H17.0951V24C21.0951 23.4 23.9951 20 23.9951 16Z" fill="white"/>
</svg>
