<svg width="32" height="32" viewBox="0 0 32 32" fill="none" xmlns="http://www.w3.org/2000/svg">
<path d="M26.9951 0H4.99512C2.23369 0 -0.00488281 2.23858 -0.00488281 5V27C-0.00488281 29.7614 2.23369 32 4.99512 32H26.9951C29.7565 32 31.9951 29.7614 31.9951 27V5C31.9951 2.23858 29.7565 0 26.9951 0Z" fill="#F00073"/>
<path d="M15.9953 9.2002C18.1953 9.2002 18.4953 9.2002 19.3953 9.2002C20.1953 9.2002 20.5953 9.4002 20.8953 9.5002C21.2953 9.7002 21.5953 9.8002 21.8953 10.1002C22.1953 10.4002 22.3953 10.7002 22.4953 11.1002C22.5953 11.4002 22.6953 11.8002 22.7953 12.6002C22.7953 13.5002 22.7953 13.7002 22.7953 16.0002C22.7953 18.3002 22.7953 18.5002 22.7953 19.4002C22.7953 20.2002 22.5953 20.6002 22.4953 20.9002C22.2953 21.3002 22.1953 21.6002 21.8953 21.9002C21.5953 22.2002 21.2953 22.4002 20.8953 22.5002C20.5953 22.6002 20.1953 22.7002 19.3953 22.8002C18.4953 22.8002 18.2953 22.8002 15.9953 22.8002C13.6953 22.8002 13.4953 22.8002 12.5953 22.8002C11.7953 22.8002 11.3953 22.6002 11.0953 22.5002C10.6953 22.3002 10.3953 22.2002 10.0953 21.9002C9.79531 21.6002 9.59531 21.3002 9.49531 20.9002C9.39531 20.6002 9.29531 20.2002 9.19531 19.4002C9.19531 18.5002 9.19531 18.3002 9.19531 16.0002C9.19531 13.7002 9.19531 13.5002 9.19531 12.6002C9.19531 11.8002 9.39531 11.4002 9.49531 11.1002C9.69531 10.7002 9.79531 10.4002 10.0953 10.1002C10.3953 9.8002 10.6953 9.6002 11.0953 9.5002C11.3953 9.4002 11.7953 9.3002 12.5953 9.2002C13.4953 9.2002 13.7953 9.2002 15.9953 9.2002ZM15.9953 7.7002C13.6953 7.7002 13.4953 7.7002 12.5953 7.7002C11.6953 7.7002 11.0953 7.9002 10.5953 8.1002C10.0953 8.3002 9.59531 8.6002 9.09531 9.1002C8.59531 9.6002 8.39531 10.0002 8.09531 10.6002C7.89531 11.1002 7.79531 11.7002 7.69531 12.6002C7.69531 13.5002 7.69531 13.8002 7.69531 16.0002C7.69531 18.3002 7.69531 18.5002 7.69531 19.4002C7.69531 20.3002 7.89531 20.9002 8.09531 21.4002C8.29531 21.9002 8.59531 22.4002 9.09531 22.9002C9.59531 23.4002 9.99531 23.6002 10.5953 23.9002C11.0953 24.1002 11.6953 24.2002 12.5953 24.3002C13.4953 24.3002 13.7953 24.3002 15.9953 24.3002C18.1953 24.3002 18.4953 24.3002 19.3953 24.3002C20.2953 24.3002 20.8953 24.1002 21.3953 23.9002C21.8953 23.7002 22.3953 23.4002 22.8953 22.9002C23.3953 22.4002 23.5953 22.0002 23.8953 21.4002C24.0953 20.9002 24.1953 20.3002 24.2953 19.4002C24.2953 18.5002 24.2953 18.2002 24.2953 16.0002C24.2953 13.8002 24.2953 13.5002 24.2953 12.6002C24.2953 11.7002 24.0953 11.1002 23.8953 10.6002C23.6953 10.1002 23.3953 9.6002 22.8953 9.1002C22.3953 8.6002 21.9953 8.4002 21.3953 8.1002C20.8953 7.9002 20.2953 7.8002 19.3953 7.7002C18.4953 7.7002 18.2953 7.7002 15.9953 7.7002Z" fill="white"/>
<path d="M15.9953 11.7002C13.5953 11.7002 11.6953 13.6002 11.6953 16.0002C11.6953 18.4002 13.5953 20.3002 15.9953 20.3002C18.3953 20.3002 20.2953 18.4002 20.2953 16.0002C20.2953 13.6002 18.3953 11.7002 15.9953 11.7002ZM15.9953 18.8002C14.4953 18.8002 13.1953 17.6002 13.1953 16.0002C13.1953 14.5002 14.3953 13.2002 15.9953 13.2002C17.4953 13.2002 18.7953 14.4002 18.7953 16.0002C18.7953 17.5002 17.4953 18.8002 15.9953 18.8002Z" fill="white"/>
<path d="M20.3953 12.6002C20.9476 12.6002 21.3953 12.1525 21.3953 11.6002C21.3953 11.0479 20.9476 10.6002 20.3953 10.6002C19.843 10.6002 19.3953 11.0479 19.3953 11.6002C19.3953 12.1525 19.843 12.6002 20.3953 12.6002Z" fill="white"/>
</svg>
