<svg width="32" height="32" viewBox="0 0 32 32" fill="none" xmlns="http://www.w3.org/2000/svg">
<path d="M-0.00488281 5C-0.00488281 2.23858 2.23369 0 4.99512 0H26.9951C29.7565 0 31.9951 2.23858 31.9951 5V27C31.9951 29.7614 29.7565 32 26.9951 32H4.99512C2.23369 32 -0.00488281 29.7614 -0.00488281 27V5Z" fill="black"/>
<path d="M14.4935 14.3001V13.6772C14.2801 13.6487 14.0631 13.6309 13.8391 13.6309C11.1681 13.6274 8.99512 15.8022 8.99512 18.4789C8.99512 20.1199 9.81312 21.5722 11.065 22.4514C10.2577 21.5864 9.76332 20.4224 9.76332 19.1481C9.76332 16.5105 11.8759 14.3606 14.4935 14.3001Z" fill="#25F4EE"/>
<path d="M14.6108 21.3624C15.8023 21.3624 16.7767 20.412 16.8195 19.2303L16.823 8.66919H18.7506C18.7115 8.45206 18.6902 8.22781 18.6902 8H16.0583L16.0548 18.5611C16.0121 19.7428 15.0376 20.6932 13.8462 20.6932C13.4763 20.6932 13.1278 20.6007 12.8184 20.4369C13.2167 20.9958 13.8711 21.3624 14.6108 21.3624Z" fill="#25F4EE"/>
<path d="M22.3536 12.254V11.6667C21.6174 11.6667 20.9346 11.4496 20.3584 11.0723C20.8705 11.6596 21.564 12.0868 22.3536 12.254Z" fill="#25F4EE"/>
<path d="M20.3579 11.0716C19.7959 10.4273 19.4581 9.5873 19.4581 8.66895H18.7539C18.9352 9.67273 19.5328 10.5341 20.3579 11.0716Z" fill="#FE2C55"/>
<path d="M13.843 16.2617C12.6231 16.2617 11.6309 17.2549 11.6309 18.4758C11.6309 19.3265 12.1145 20.0669 12.8187 20.4371C12.5556 20.074 12.3991 19.6291 12.3991 19.1449C12.3991 17.924 13.3913 16.9309 14.6112 16.9309C14.8388 16.9309 15.0593 16.9701 15.2656 17.0342V14.3432C15.0522 14.3147 14.8353 14.2969 14.6112 14.2969C14.5721 14.2969 14.5365 14.3004 14.4974 14.3004V16.365C14.2876 16.3009 14.0706 16.2617 13.843 16.2617Z" fill="#FE2C55"/>
<path d="M22.3528 12.2539V14.3006C20.9871 14.3006 19.721 13.8628 18.6896 13.1224V18.4795C18.6896 21.1527 16.5166 23.3311 13.8421 23.3311C12.8107 23.3311 11.8504 23.0036 11.0645 22.4519C11.95 23.4023 13.2126 24.0003 14.6103 24.0003C17.2812 24.0003 19.4578 21.8254 19.4578 19.1487V13.7916C20.4892 14.532 21.7553 14.9698 23.121 14.9698V12.3358C22.8543 12.3358 22.5982 12.3073 22.3528 12.2539Z" fill="#FE2C55"/>
<path d="M18.6905 18.4789V13.1219C19.7219 13.8623 20.988 14.3001 22.3537 14.3001V12.2534C21.5642 12.0861 20.8707 11.6589 20.3585 11.0716C19.5334 10.5341 18.9395 9.67273 18.751 8.66895H16.8233L16.8198 19.23C16.7771 20.4117 15.8026 21.3621 14.6112 21.3621C13.8714 21.3621 13.2206 20.9955 12.8152 20.4402C12.111 20.0665 11.6273 19.3297 11.6273 18.4789C11.6273 17.258 12.6195 16.2649 13.8394 16.2649C14.067 16.2649 14.2876 16.3041 14.4938 16.3681V14.3036C11.8762 14.3606 9.76367 16.5105 9.76367 19.1481C9.76367 20.4224 10.258 21.5829 11.0654 22.4514C11.8513 23.0031 12.8116 23.3306 13.843 23.3306C16.5139 23.3306 18.6905 21.1521 18.6905 18.4789Z" fill="white"/>
</svg>
