<svg width="32" height="32" viewBox="0 0 32 32" fill="none" xmlns="http://www.w3.org/2000/svg">
<path d="M26.9951 0H4.99512C2.23369 0 -0.00488281 2.23858 -0.00488281 5V27C-0.00488281 29.7614 2.23369 32 4.99512 32H26.9951C29.7565 32 31.9951 29.7614 31.9951 27V5C31.9951 2.23858 29.7565 0 26.9951 0Z" fill="#2867B2"/>
<path d="M11.5951 24H8.19511V13.3H11.5951V24ZM9.89512 11.8C8.79512 11.8 7.99512 11 7.99512 9.9C7.99512 8.8 8.89512 8 9.89512 8C10.9951 8 11.7951 8.8 11.7951 9.9C11.7951 11 10.9951 11.8 9.89512 11.8ZM23.9951 24H20.5951V18.2C20.5951 16.5 19.8951 16 18.8951 16C17.8951 16 16.8951 16.8 16.8951 18.3V24H13.4951V13.3H16.6951V14.8C16.9951 14.1 18.1951 13 19.8951 13C21.7951 13 23.7951 14.1 23.7951 17.4V24H23.9951Z" fill="white"/>
</svg>
