<svg width="32" height="32" viewBox="0 0 32 32" fill="none" xmlns="http://www.w3.org/2000/svg">
<path d="M26.9951 0H4.99512C2.23369 0 -0.00488281 2.23858 -0.00488281 5V27C-0.00488281 29.7614 2.23369 32 4.99512 32H26.9951C29.7565 32 31.9951 29.7614 31.9951 27V5C31.9951 2.23858 29.7565 0 26.9951 0Z" fill="#FF0000"/>
<path d="M23.5951 12.1004C23.3951 11.4004 22.8951 10.9004 22.1951 10.7004C20.9951 10.4004 15.8951 10.4004 15.8951 10.4004C15.8951 10.4004 10.8951 10.4004 9.59512 10.7004C8.89512 10.9004 8.39511 11.4004 8.19511 12.1004C7.99511 13.4004 7.99512 16.0004 7.99512 16.0004C7.99512 16.0004 7.99512 18.6004 8.29512 19.9004C8.49512 20.6004 8.99511 21.1004 9.69511 21.3004C10.8951 21.6004 15.9951 21.6004 15.9951 21.6004C15.9951 21.6004 20.9951 21.6004 22.2951 21.3004C22.9951 21.1004 23.4951 20.6004 23.6951 19.9004C23.9951 18.6004 23.9951 16.0004 23.9951 16.0004C23.9951 16.0004 23.9951 13.4004 23.5951 12.1004ZM14.3951 18.4004V13.6004L18.5951 16.0004L14.3951 18.4004Z" fill="white"/>
</svg>
