<svg xmlns="http://www.w3.org/2000/svg" xmlns:xlink="http://www.w3.org/1999/xlink" width="1920" zoomAndPan="magnify" viewBox="0 0 1440 809.999993" height="1080" preserveAspectRatio="xMidYMid meet" version="1.0"><defs><g/><clipPath id="1f5f8a3f01"><path d="M 929 642 L 1059.695312 642 L 1059.695312 656 L 929 656 Z M 929 642 " clip-rule="nonzero"/></clipPath></defs><rect x="-144" width="1728" fill="#ffffff" y="-80.999999" height="971.999992" fill-opacity="1"/><rect x="-144" width="1728" fill="#f5edff" y="-80.999999" height="971.999992" fill-opacity="1"/><path fill="#432d6e" d="M 853.335938 650.335938 C 853.335938 656.121094 773.15625 660.800781 674.234375 660.800781 C 575.316406 660.800781 495.136719 656.121094 495.136719 650.335938 C 495.136719 644.558594 575.316406 639.878906 674.234375 639.878906 C 773.15625 639.878906 853.335938 644.558594 853.335938 650.335938 Z M 853.335938 650.335938 " fill-opacity="1" fill-rule="nonzero"/><path fill="#8ebc5f" d="M 822.3125 639.378906 C 821.890625 639.707031 821.453125 640.011719 821.019531 640.300781 C 822.523438 640.699219 824.078125 641.109375 825.304688 642.085938 C 826.519531 643.046875 827.3125 644.738281 826.769531 646.1875 C 826.359375 647.269531 825.320312 648.273438 824.222656 648.605469 C 824.039062 648.65625 822.324219 648.695312 819.464844 648.761719 L 819.398438 648.761719 C 804.175781 649.050781 757.34375 649.328125 740.5 648.589844 C 724.910156 647.929688 720.558594 632.898438 720.375 627.871094 C 720.226562 625.976562 720.566406 623.585938 721.757812 621.972656 C 723.234375 619.910156 725.886719 619.066406 728.394531 618.789062 C 732.574219 618.316406 736.886719 619.105469 740.617188 621.019531 C 738.28125 618.59375 738.539062 614.335938 740.777344 611.835938 C 744.605469 607.503906 752.636719 608.144531 756.628906 613.789062 C 756.460938 607.554688 759.019531 601.285156 763.332031 596.644531 C 768.632812 590.941406 781.464844 589.332031 785.660156 600.140625 C 787.222656 604.210938 787.382812 607.683594 786.871094 610.160156 C 790.542969 604.191406 800.15625 599.410156 805.085938 602.410156 C 807.105469 603.652344 808.121094 606.105469 808.226562 608.484375 C 808.332031 610.84375 807.660156 613.179688 807 615.453125 C 828.4375 610.390625 835.746094 629.21875 822.3125 639.378906 Z M 822.3125 639.378906 " fill-opacity="1" fill-rule="nonzero"/><path fill="#ffffff" d="M 785.660156 600.140625 C 786.582031 602.542969 787.242188 605.339844 787.125 608.058594 C 786.320312 608.574219 785.539062 609.15625 784.800781 609.777344 C 785.117188 607.042969 783.507812 604.3125 781.1875 602.808594 C 776.757812 599.945312 768.332031 600.488281 762.355469 606.09375 C 759.398438 608.878906 757.394531 612.667969 756.777344 616.679688 C 754.679688 613.601562 750.761719 611.863281 747.070312 612.390625 C 743.625 612.878906 740.554688 615.292969 739.207031 618.488281 C 738.613281 616.230469 739.195312 613.601562 740.777344 611.835938 C 744.605469 607.503906 752.636719 608.144531 756.628906 613.789062 C 756.460938 607.554688 759.019531 601.285156 763.332031 596.644531 C 768.632812 590.941406 781.464844 589.332031 785.660156 600.140625 Z M 785.660156 600.140625 " fill-opacity="0.4" fill-rule="nonzero"/><path fill="#ffffff" d="M 822.3125 639.378906 C 828.363281 632.304688 825.890625 621.46875 817.550781 617.640625 C 813.582031 615.832031 808.503906 615.53125 804.691406 617.667969 C 806.511719 614.765625 805.757812 610.6875 803.371094 608.230469 C 800.523438 605.285156 795.332031 604.101562 789.945312 606.515625 C 793.585938 603.128906 800.898438 599.863281 805.085938 602.410156 C 807.105469 603.652344 808.121094 606.105469 808.226562 608.484375 C 808.332031 610.84375 807.660156 613.179688 807 615.453125 C 828.535156 610.367188 835.714844 629.242188 822.3125 639.378906 Z M 822.3125 639.378906 " fill-opacity="0.4" fill-rule="nonzero"/><path fill="#6b9b3c" d="M 820.269531 647.269531 C 820.066406 647.828125 819.761719 648.335938 819.394531 648.765625 C 804.175781 649.058594 757.339844 649.324219 740.496094 648.585938 C 724.910156 647.929688 720.5625 632.902344 720.375 627.867188 C 720.359375 627.703125 720.359375 627.523438 720.359375 627.347656 C 722.132812 625.132812 725.890625 623.683594 729.828125 624.457031 C 740.265625 626.546875 742.25 638.871094 750.964844 641.246094 C 753.816406 642.019531 757.222656 641.269531 758.910156 638.847656 C 760.542969 636.503906 760.238281 633.28125 761.507812 630.707031 C 763.039062 627.589844 767.082031 625.953125 770.363281 627.144531 C 773.632812 628.324219 775.699219 632.167969 774.890625 635.550781 C 776.433594 631.949219 778.03125 628.285156 780.679688 625.421875 C 783.339844 622.542969 787.332031 620.589844 791.160156 621.386719 C 794.988281 622.175781 798.066406 626.421875 796.734375 630.097656 C 798.472656 626.21875 803.894531 624.546875 807.507812 626.789062 C 811.117188 629.023438 812.042969 634.625 809.34375 637.910156 C 812.09375 638.265625 814.957031 638.644531 817.277344 640.167969 C 819.609375 641.675781 821.230469 644.65625 820.269531 647.269531 Z M 820.269531 647.269531 " fill-opacity="1" fill-rule="nonzero"/><g clip-path="url(#1f5f8a3f01)"><path fill="#432d6e" d="M 1059.695312 648.667969 C 1059.695312 652.261719 1030.492188 655.171875 994.460938 655.171875 C 958.433594 655.171875 929.226562 652.261719 929.226562 648.667969 C 929.226562 645.078125 958.433594 642.171875 994.460938 642.171875 C 1030.492188 642.171875 1059.695312 645.078125 1059.695312 648.667969 Z M 1059.695312 648.667969 " fill-opacity="1" fill-rule="nonzero"/></g><path fill="#432d6e" d="M 519.34375 648.722656 C 519.34375 651.765625 503.265625 654.226562 483.433594 654.226562 C 463.601562 654.226562 447.527344 651.765625 447.527344 648.722656 C 447.527344 645.683594 463.601562 643.222656 483.433594 643.222656 C 503.265625 643.222656 519.34375 645.683594 519.34375 648.722656 Z M 519.34375 648.722656 " fill-opacity="1" fill-rule="nonzero"/><path fill="#eeebff" d="M 754.957031 514.3125 L 754.957031 638 C 754.957031 644.503906 749.683594 649.78125 743.183594 649.78125 L 704.75 649.78125 C 698.246094 649.78125 692.976562 644.503906 692.976562 638 L 692.976562 515.113281 C 713.300781 518.421875 734.289062 518.246094 754.957031 514.3125 Z M 754.957031 514.3125 " fill-opacity="1" fill-rule="nonzero"/><path fill="#dcd9fc" d="M 754.957031 514.3125 L 754.957031 638 C 754.957031 644.503906 749.683594 649.78125 743.183594 649.78125 L 742.980469 649.78125 C 743.070312 649.246094 743.105469 648.6875 743.105469 648.132812 L 743.105469 580.808594 C 743.105469 552.632812 721.507812 529.414062 693.472656 526.8125 C 693.308594 526.796875 693.140625 526.78125 692.976562 526.765625 L 692.976562 515.113281 C 713.300781 518.421875 734.289062 518.246094 754.957031 514.3125 Z M 754.957031 514.3125 " fill-opacity="1" fill-rule="nonzero"/><path fill="#eeebff" d="M 877.089844 250.101562 C 828.316406 164.167969 719.167969 134.074219 633.289062 182.882812 C 581.042969 212.582031 549.4375 264.648438 543.695312 320.238281 C 543.328125 323.8125 543.0625 327.402344 542.921875 330.992188 C 542.871094 331.839844 542.847656 332.691406 542.820312 333.539062 C 542.621094 340.882812 542.859375 348.261719 543.558594 355.628906 C 545.890625 379.964844 553.265625 404.207031 566.113281 426.84375 C 614.890625 512.777344 724.035156 542.871094 809.914062 494.0625 C 863.441406 463.640625 895.300781 409.75 899.875 352.648438 C 902.710938 317.648438 895.203125 282.019531 877.089844 250.101562 Z M 671.953125 458.164062 L 671.941406 458.164062 C 620.851562 436.988281 590.1875 386.371094 592.167969 333.667969 C 593.816406 290.3125 617.183594 248.78125 657.660156 225.792969 C 719.839844 190.453125 798.890625 212.238281 834.207031 274.460938 C 846.625 296.335938 851.988281 320.300781 851.011719 343.710938 C 847.285156 433.820312 755.222656 492.671875 671.953125 458.164062 Z M 671.953125 458.164062 " fill-opacity="1" fill-rule="nonzero"/><path fill="#ffffff" d="M 877.089844 250.101562 C 828.316406 164.167969 719.167969 134.074219 633.289062 182.882812 C 581.042969 212.582031 549.4375 264.648438 543.695312 320.238281 C 543.328125 323.8125 543.0625 327.402344 542.921875 330.992188 C 542.871094 331.839844 542.847656 332.691406 542.820312 333.539062 C 542.71875 337.253906 542.734375 340.996094 542.871094 344.722656 C 542.886719 344.40625 542.910156 344.101562 542.921875 343.785156 C 543.0625 340.199219 543.328125 336.609375 543.695312 333.03125 C 549.4375 277.441406 581.042969 225.375 633.289062 195.675781 C 719.167969 146.871094 828.316406 176.960938 877.089844 262.898438 C 891.222656 287.800781 899.203125 315.394531 900.34375 344.496094 C 900.625 336.378906 893.332031 278.722656 877.089844 250.101562 Z M 877.089844 250.101562 " fill-opacity="0.6" fill-rule="nonzero"/><path fill="#dcd9fc" d="M 899.875 352.648438 C 895.125 352.410156 891.878906 353.601562 890.015625 356.125 C 870.097656 383.007812 871.90625 466.203125 825.703125 473.46875 C 804.910156 476.742188 790.628906 466.382812 781.109375 453.5625 C 771.910156 441.171875 767.171875 426.488281 765.296875 419.566406 L 812.296875 381.28125 C 816.257812 392.964844 817.160156 396.878906 818.304688 401.445312 C 824.183594 382.210938 836.128906 358.820312 851.011719 343.710938 C 858.386719 336.214844 867.105469 329.964844 877.253906 326.578125 C 877.253906 326.578125 889.320312 320.3125 899.519531 320.046875 C 900.636719 330.941406 900.75 341.859375 899.875 352.648438 Z M 899.875 352.648438 " fill-opacity="1" fill-rule="nonzero"/><path fill="#dcd9fc" d="M 690.910156 420.222656 C 688.832031 427.894531 683.21875 445.117188 671.953125 458.164062 L 671.941406 458.164062 C 662.511719 469.070312 649.117188 477.070312 630.5 474.140625 C 584.296875 466.875 586.097656 383.664062 566.191406 356.796875 C 563.210938 352.777344 556.75 352.140625 546.242188 355.300781 C 545.421875 355.539062 544.53125 355.65625 543.558594 355.628906 C 542.859375 348.261719 542.621094 340.882812 542.820312 333.539062 C 545.445312 333.109375 547.128906 332.664062 547.128906 332.664062 C 547.105469 332.652344 547.09375 332.652344 547.066406 332.640625 C 545.585938 332.09375 544.203125 331.535156 542.921875 330.992188 C 543.0625 327.402344 543.328125 323.8125 543.695312 320.238281 C 545.699219 321.140625 548.523438 321.621094 552.78125 320.949219 C 563.527344 319.25 578.9375 327.25 578.9375 327.25 C 583.652344 328.824219 588.0625 331.015625 592.167969 333.667969 C 624.027344 354.183594 637.902344 402.140625 637.902344 402.140625 C 637.902344 402.140625 639.003906 396.421875 643.910156 381.953125 Z M 690.910156 420.222656 " fill-opacity="1" fill-rule="nonzero"/><path fill="#432d6e" d="M 785.5625 451.140625 C 723.472656 486.429688 644.4375 464.832031 608.996094 402.464844 C 573.683594 340.234375 595.46875 261.144531 657.65625 225.796875 C 719.832031 190.457031 798.894531 212.246094 834.207031 274.472656 C 869.589844 336.800781 847.613281 415.910156 785.5625 451.140625 Z M 785.5625 451.140625 " fill-opacity="1" fill-rule="nonzero"/><path fill="#ffc2ab" d="M 790.464844 290.074219 C 790.464844 291.054688 790.375 292.023438 790.199219 292.988281 C 790.023438 293.949219 789.757812 294.882812 789.414062 295.789062 C 789.066406 296.695312 788.636719 297.554688 788.132812 298.371094 C 787.628906 299.1875 787.054688 299.941406 786.414062 300.632812 C 785.773438 301.328125 785.074219 301.945312 784.316406 302.492188 C 783.5625 303.035156 782.765625 303.496094 781.925781 303.871094 C 781.085938 304.246094 780.222656 304.53125 779.332031 304.722656 C 778.441406 304.914062 777.542969 305.007812 776.632812 305.007812 C 775.726562 305.007812 774.824219 304.914062 773.933594 304.722656 C 773.042969 304.53125 772.179688 304.246094 771.339844 303.871094 C 770.5 303.496094 769.703125 303.035156 768.949219 302.492188 C 768.195312 301.945312 767.496094 301.328125 766.851562 300.632812 C 766.210938 299.941406 765.636719 299.1875 765.132812 298.371094 C 764.628906 297.554688 764.203125 296.695312 763.855469 295.789062 C 763.507812 294.882812 763.246094 293.949219 763.066406 292.988281 C 762.890625 292.023438 762.800781 291.054688 762.800781 290.074219 C 762.800781 289.089844 762.890625 288.121094 763.066406 287.160156 C 763.246094 286.195312 763.507812 285.261719 763.855469 284.355469 C 764.203125 283.449219 764.628906 282.589844 765.132812 281.773438 C 765.636719 280.957031 766.210938 280.203125 766.851562 279.511719 C 767.496094 278.816406 768.195312 278.199219 768.949219 277.652344 C 769.703125 277.109375 770.5 276.648438 771.339844 276.273438 C 772.179688 275.898438 773.042969 275.613281 773.933594 275.421875 C 774.824219 275.230469 775.726562 275.136719 776.632812 275.136719 C 777.542969 275.136719 778.441406 275.230469 779.332031 275.421875 C 780.222656 275.613281 781.085938 275.898438 781.925781 276.273438 C 782.765625 276.648438 783.5625 277.109375 784.316406 277.652344 C 785.074219 278.199219 785.773438 278.816406 786.414062 279.511719 C 787.054688 280.203125 787.628906 280.957031 788.132812 281.773438 C 788.636719 282.589844 789.066406 283.449219 789.414062 284.355469 C 789.757812 285.261719 790.023438 286.195312 790.199219 287.160156 C 790.375 288.121094 790.464844 289.089844 790.464844 290.074219 Z M 790.464844 290.074219 " fill-opacity="1" fill-rule="nonzero"/><path fill="#fd8169" d="M 785.492188 290.074219 C 785.492188 290.714844 785.4375 291.347656 785.320312 291.976562 C 785.203125 292.605469 785.03125 293.21875 784.804688 293.808594 C 784.578125 294.402344 784.300781 294.964844 783.96875 295.496094 C 783.640625 296.03125 783.265625 296.523438 782.84375 296.976562 C 782.425781 297.429688 781.96875 297.835938 781.476562 298.191406 C 780.980469 298.546875 780.460938 298.847656 779.910156 299.09375 C 779.363281 299.339844 778.796875 299.523438 778.214844 299.648438 C 777.632812 299.773438 777.046875 299.835938 776.453125 299.835938 C 775.859375 299.835938 775.269531 299.773438 774.6875 299.648438 C 774.105469 299.523438 773.539062 299.339844 772.992188 299.09375 C 772.441406 298.847656 771.921875 298.546875 771.429688 298.191406 C 770.933594 297.835938 770.476562 297.429688 770.058594 296.976562 C 769.636719 296.523438 769.261719 296.03125 768.933594 295.496094 C 768.601562 294.964844 768.324219 294.402344 768.097656 293.808594 C 767.871094 293.21875 767.699219 292.605469 767.582031 291.976562 C 767.46875 291.347656 767.410156 290.714844 767.410156 290.074219 C 767.410156 289.429688 767.46875 288.796875 767.582031 288.167969 C 767.699219 287.539062 767.871094 286.929688 768.097656 286.335938 C 768.324219 285.742188 768.601562 285.179688 768.933594 284.648438 C 769.261719 284.113281 769.636719 283.621094 770.058594 283.167969 C 770.476562 282.714844 770.933594 282.308594 771.429688 281.953125 C 771.921875 281.597656 772.441406 281.296875 772.992188 281.050781 C 773.539062 280.804688 774.105469 280.621094 774.6875 280.496094 C 775.269531 280.371094 775.859375 280.308594 776.453125 280.308594 C 777.046875 280.308594 777.632812 280.371094 778.214844 280.496094 C 778.796875 280.621094 779.363281 280.804688 779.910156 281.050781 C 780.460938 281.296875 780.980469 281.597656 781.476562 281.953125 C 781.96875 282.308594 782.425781 282.714844 782.84375 283.167969 C 783.265625 283.621094 783.640625 284.113281 783.96875 284.648438 C 784.300781 285.179688 784.578125 285.742188 784.804688 286.335938 C 785.03125 286.929688 785.203125 287.539062 785.320312 288.167969 C 785.4375 288.796875 785.492188 289.429688 785.492188 290.074219 Z M 785.492188 290.074219 " fill-opacity="1" fill-rule="nonzero"/><path fill="#ffc2ab" d="M 697.609375 290.074219 C 697.609375 291.054688 697.519531 292.023438 697.34375 292.988281 C 697.164062 293.949219 696.902344 294.882812 696.554688 295.789062 C 696.207031 296.695312 695.78125 297.554688 695.277344 298.371094 C 694.773438 299.1875 694.199219 299.941406 693.558594 300.632812 C 692.914062 301.328125 692.21875 301.945312 691.460938 302.492188 C 690.707031 303.035156 689.910156 303.496094 689.070312 303.871094 C 688.230469 304.246094 687.367188 304.53125 686.476562 304.722656 C 685.585938 304.914062 684.6875 305.007812 683.777344 305.007812 C 682.871094 305.007812 681.96875 304.914062 681.078125 304.722656 C 680.1875 304.53125 679.324219 304.246094 678.484375 303.871094 C 677.644531 303.496094 676.847656 303.035156 676.09375 302.492188 C 675.339844 301.945312 674.640625 301.328125 673.996094 300.632812 C 673.355469 299.941406 672.78125 299.1875 672.277344 298.371094 C 671.773438 297.554688 671.347656 296.695312 671 295.789062 C 670.652344 294.882812 670.390625 293.949219 670.210938 292.988281 C 670.035156 292.023438 669.945312 291.054688 669.945312 290.074219 C 669.945312 289.089844 670.035156 288.121094 670.210938 287.160156 C 670.390625 286.195312 670.652344 285.261719 671 284.355469 C 671.347656 283.449219 671.773438 282.589844 672.277344 281.773438 C 672.78125 280.957031 673.355469 280.203125 673.996094 279.511719 C 674.640625 278.816406 675.339844 278.199219 676.09375 277.652344 C 676.847656 277.109375 677.644531 276.648438 678.484375 276.273438 C 679.324219 275.898438 680.1875 275.613281 681.078125 275.421875 C 681.96875 275.230469 682.871094 275.136719 683.777344 275.136719 C 684.6875 275.136719 685.585938 275.230469 686.476562 275.421875 C 687.367188 275.613281 688.230469 275.898438 689.070312 276.273438 C 689.910156 276.648438 690.707031 277.109375 691.460938 277.652344 C 692.21875 278.199219 692.914062 278.816406 693.558594 279.511719 C 694.199219 280.203125 694.773438 280.957031 695.277344 281.773438 C 695.78125 282.589844 696.207031 283.449219 696.554688 284.355469 C 696.902344 285.261719 697.164062 286.195312 697.34375 287.160156 C 697.519531 288.121094 697.609375 289.089844 697.609375 290.074219 Z M 697.609375 290.074219 " fill-opacity="1" fill-rule="nonzero"/><path fill="#fd8169" d="M 692.640625 290.074219 C 692.640625 290.714844 692.582031 291.347656 692.464844 291.976562 C 692.347656 292.605469 692.179688 293.21875 691.949219 293.808594 C 691.722656 294.402344 691.445312 294.964844 691.113281 295.496094 C 690.785156 296.03125 690.410156 296.523438 689.992188 296.976562 C 689.570312 297.429688 689.113281 297.835938 688.621094 298.191406 C 688.125 298.546875 687.605469 298.847656 687.058594 299.09375 C 686.507812 299.339844 685.941406 299.523438 685.359375 299.648438 C 684.777344 299.773438 684.191406 299.835938 683.597656 299.835938 C 683.003906 299.835938 682.414062 299.773438 681.832031 299.648438 C 681.25 299.523438 680.683594 299.339844 680.136719 299.09375 C 679.585938 298.847656 679.066406 298.546875 678.574219 298.191406 C 678.078125 297.835938 677.621094 297.429688 677.203125 296.976562 C 676.78125 296.523438 676.40625 296.03125 676.078125 295.496094 C 675.75 294.964844 675.46875 294.402344 675.242188 293.808594 C 675.015625 293.21875 674.84375 292.605469 674.726562 291.976562 C 674.613281 291.347656 674.554688 290.714844 674.554688 290.074219 C 674.554688 289.429688 674.613281 288.796875 674.726562 288.167969 C 674.84375 287.539062 675.015625 286.929688 675.242188 286.335938 C 675.46875 285.742188 675.75 285.179688 676.078125 284.648438 C 676.40625 284.113281 676.78125 283.621094 677.203125 283.167969 C 677.621094 282.714844 678.078125 282.308594 678.574219 281.953125 C 679.066406 281.597656 679.585938 281.296875 680.136719 281.050781 C 680.683594 280.804688 681.25 280.621094 681.832031 280.496094 C 682.414062 280.371094 683.003906 280.308594 683.597656 280.308594 C 684.191406 280.308594 684.777344 280.371094 685.359375 280.496094 C 685.941406 280.621094 686.507812 280.804688 687.058594 281.050781 C 687.605469 281.296875 688.125 281.597656 688.621094 281.953125 C 689.113281 282.308594 689.570312 282.714844 689.992188 283.167969 C 690.410156 283.621094 690.785156 284.113281 691.113281 284.648438 C 691.445312 285.179688 691.722656 285.742188 691.949219 286.335938 C 692.179688 286.929688 692.347656 287.539062 692.464844 288.167969 C 692.582031 288.796875 692.640625 289.429688 692.640625 290.074219 Z M 692.640625 290.074219 " fill-opacity="1" fill-rule="nonzero"/><path fill="#fd8169" d="M 808.882812 376.828125 C 808.882812 376.828125 790.199219 348 756.128906 342.828125 C 739.703125 340.332031 721.46875 340.648438 704.703125 342.285156 C 666.160156 346.046875 647.527344 376.828125 647.527344 376.828125 L 616.078125 430.765625 C 617.425781 431.929688 618.609375 433.207031 619.765625 434.574219 C 624.011719 432.042969 630.140625 434.933594 629.410156 441.179688 C 633.796875 442.414062 635.238281 446.910156 633.578125 450.644531 C 661.101562 464.179688 701.410156 476.71875 721.71875 476.71875 C 741.304688 476.71875 761.152344 471.78125 779.40625 461.40625 C 790.773438 454.953125 824.621094 436.375 832.875 427.136719 Z M 808.882812 376.828125 " fill-opacity="1" fill-rule="nonzero"/><path fill="#f9634e" d="M 808.890625 392.011719 L 808.890625 437.632812 C 770.878906 480.230469 707.15625 489.4375 658.34375 458.140625 C 670.925781 462.652344 684.484375 465.101562 698.628906 465.101562 C 748.175781 465.101562 790.691406 434.972656 808.890625 392.011719 Z M 808.890625 392.011719 " fill-opacity="1" fill-rule="nonzero"/><path fill="#ffffff" d="M 751.898438 342.675781 C 750.421875 359.949219 742.488281 376.628906 730.4375 376.628906 C 718.265625 376.628906 710.289062 359.621094 708.945312 342.179688 C 722.925781 340.449219 738.148438 340.617188 751.898438 342.675781 Z M 751.898438 342.675781 " fill-opacity="1" fill-rule="nonzero"/><path fill="#ffc2ab" d="M 744.402344 340.992188 L 744.402344 341.113281 C 744.402344 356.855469 738.152344 369.617188 730.449219 369.617188 C 722.746094 369.617188 716.507812 356.855469 716.507812 341.113281 L 716.507812 341.003906 C 720.875 342.867188 725.570312 343.882812 730.449219 343.882812 C 735.339844 343.882812 740.035156 342.867188 744.402344 340.992188 Z M 744.402344 340.992188 " fill-opacity="1" fill-rule="nonzero"/><path fill="#fd8169" d="M 744.402344 340.992188 L 744.402344 341.113281 C 744.402344 355.957031 738.851562 368.140625 731.753906 369.488281 C 733.125 367.871094 734.347656 364.652344 735.371094 361.050781 C 737.328125 354.179688 732.074219 347.535156 724.9375 347.566406 C 724.886719 347.566406 724.839844 347.566406 724.789062 347.566406 C 722.046875 347.566406 719.371094 347.25 716.769531 346.628906 C 716.601562 344.847656 716.507812 343 716.507812 341.113281 L 716.507812 341.003906 C 720.875 342.867188 725.570312 343.882812 730.449219 343.882812 C 735.339844 343.882812 740.035156 342.867188 744.402344 340.992188 Z M 744.402344 340.992188 " fill-opacity="1" fill-rule="nonzero"/><path fill="#ffc2ab" d="M 773.511719 290.074219 C 773.511719 291.835938 773.441406 293.59375 773.304688 295.347656 C 773.167969 297.101562 772.960938 298.84375 772.683594 300.570312 C 772.410156 302.300781 772.066406 304.007812 771.65625 305.695312 C 771.25 307.378906 770.773438 309.039062 770.234375 310.664062 C 769.695312 312.292969 769.09375 313.886719 768.425781 315.441406 C 767.761719 316.996094 767.039062 318.503906 766.253906 319.96875 C 765.472656 321.433594 764.632812 322.847656 763.738281 324.210938 C 762.84375 325.574219 761.898438 326.878906 760.898438 328.125 C 759.902344 329.371094 758.859375 330.550781 757.769531 331.671875 C 756.679688 332.789062 755.546875 333.835938 754.375 334.816406 C 753.203125 335.796875 751.992188 336.699219 750.75 337.53125 C 749.507812 338.363281 748.234375 339.113281 746.929688 339.789062 C 745.628906 340.464844 744.300781 341.058594 742.953125 341.570312 C 741.601562 342.082031 740.234375 342.507812 738.851562 342.851562 C 737.46875 343.195312 736.078125 343.453125 734.671875 343.625 C 733.269531 343.800781 731.863281 343.886719 730.453125 343.886719 C 729.042969 343.886719 727.636719 343.800781 726.230469 343.625 C 724.828125 343.453125 723.433594 343.195312 722.050781 342.851562 C 720.667969 342.507812 719.300781 342.082031 717.953125 341.570312 C 716.601562 341.058594 715.277344 340.464844 713.972656 339.789062 C 712.671875 339.113281 711.398438 338.363281 710.152344 337.53125 C 708.910156 336.699219 707.703125 335.796875 706.53125 334.816406 C 705.355469 333.835938 704.226562 332.789062 703.136719 331.671875 C 702.046875 330.550781 701 329.371094 700.003906 328.125 C 699.007812 326.878906 698.0625 325.574219 697.167969 324.210938 C 696.273438 322.847656 695.433594 321.433594 694.648438 319.96875 C 693.867188 318.503906 693.140625 316.996094 692.476562 315.441406 C 691.8125 313.886719 691.210938 312.292969 690.671875 310.664062 C 690.128906 309.039062 689.65625 307.378906 689.246094 305.695312 C 688.835938 304.007812 688.496094 302.300781 688.21875 300.570312 C 687.945312 298.84375 687.738281 297.101562 687.601562 295.347656 C 687.460938 293.59375 687.390625 291.835938 687.390625 290.074219 C 687.390625 288.308594 687.460938 286.550781 687.601562 284.796875 C 687.738281 283.042969 687.945312 281.300781 688.21875 279.574219 C 688.496094 277.84375 688.835938 276.136719 689.246094 274.449219 C 689.65625 272.765625 690.128906 271.105469 690.671875 269.480469 C 691.210938 267.851562 691.8125 266.257812 692.476562 264.703125 C 693.140625 263.152344 693.867188 261.640625 694.648438 260.175781 C 695.433594 258.710938 696.273438 257.296875 697.167969 255.933594 C 698.0625 254.570312 699.007812 253.265625 700.003906 252.019531 C 701 250.773438 702.046875 249.59375 703.136719 248.472656 C 704.226562 247.355469 705.355469 246.308594 706.53125 245.328125 C 707.703125 244.347656 708.910156 243.445312 710.152344 242.613281 C 711.398438 241.78125 712.671875 241.03125 713.972656 240.355469 C 715.277344 239.679688 716.601562 239.085938 717.953125 238.574219 C 719.300781 238.066406 720.667969 237.636719 722.050781 237.292969 C 723.433594 236.949219 724.828125 236.691406 726.230469 236.519531 C 727.636719 236.34375 729.042969 236.257812 730.453125 236.257812 C 731.863281 236.257812 733.269531 236.34375 734.671875 236.519531 C 736.078125 236.691406 737.46875 236.949219 738.851562 237.292969 C 740.234375 237.636719 741.601562 238.066406 742.953125 238.574219 C 744.300781 239.085938 745.628906 239.679688 746.929688 240.355469 C 748.234375 241.03125 749.507812 241.78125 750.75 242.613281 C 751.992188 243.445312 753.203125 244.347656 754.375 245.328125 C 755.546875 246.308594 756.679688 247.355469 757.769531 248.472656 C 758.859375 249.59375 759.902344 250.773438 760.898438 252.019531 C 761.898438 253.265625 762.84375 254.570312 763.738281 255.933594 C 764.632812 257.296875 765.472656 258.710938 766.253906 260.175781 C 767.039062 261.640625 767.761719 263.152344 768.425781 264.703125 C 769.09375 266.257812 769.695312 267.851562 770.234375 269.480469 C 770.773438 271.105469 771.25 272.765625 771.65625 274.449219 C 772.066406 276.136719 772.410156 277.84375 772.683594 279.574219 C 772.960938 281.300781 773.167969 283.042969 773.304688 284.796875 C 773.441406 286.550781 773.511719 288.308594 773.511719 290.074219 Z M 773.511719 290.074219 " fill-opacity="1" fill-rule="nonzero"/><path fill="#031230" d="M 741.242188 325.527344 L 741.242188 325.53125 C 739.851562 327.019531 735.398438 324.222656 730.117188 324.222656 C 723.722656 324.222656 718.535156 328.328125 718.535156 323.953125 C 718.535156 321.339844 723.71875 316.035156 730.109375 316.035156 C 737.804688 316.035156 743.339844 323.273438 741.242188 325.527344 Z M 741.242188 325.527344 " fill-opacity="1" fill-rule="nonzero"/><path fill="#031230" d="M 759.792969 293.160156 C 759.792969 297.800781 756.035156 301.558594 751.390625 301.558594 C 746.753906 301.558594 743 297.800781 743 293.160156 C 743 288.515625 746.753906 284.753906 751.390625 284.753906 C 756.035156 284.753906 759.792969 288.515625 759.792969 293.160156 Z M 759.792969 293.160156 " fill-opacity="1" fill-rule="nonzero"/><path fill="#ffffff" d="M 756.972656 295.183594 C 756.972656 296.640625 755.792969 297.820312 754.335938 297.820312 C 752.878906 297.820312 751.699219 296.640625 751.699219 295.183594 C 751.699219 293.722656 752.878906 292.542969 754.335938 292.542969 C 755.792969 292.542969 756.972656 293.722656 756.972656 295.183594 Z M 756.972656 295.183594 " fill-opacity="1" fill-rule="nonzero"/><path fill="#fd8169" d="M 734.867188 302.507812 C 733.507812 304.089844 732.40625 305.644531 730.121094 305.644531 C 727.640625 305.644531 726.273438 304.238281 724.738281 302.503906 C 724.261719 301.96875 723.527344 301.984375 723.65625 302.015625 C 722.730469 302.015625 722.039062 302.882812 722.25 303.789062 C 723.089844 307.367188 726.296875 310.03125 730.121094 310.03125 C 733.957031 310.03125 737.160156 307.367188 737.996094 303.789062 C 738.207031 302.882812 737.515625 302.015625 736.585938 302.015625 C 736.242188 302.058594 735.449219 301.824219 734.867188 302.507812 Z M 734.867188 302.507812 " fill-opacity="1" fill-rule="nonzero"/><path fill="#031230" d="M 698.628906 281.699219 C 696.394531 281.699219 695.238281 278.972656 696.839844 277.371094 C 702.976562 271.226562 712.957031 271.222656 719.089844 277.359375 C 720.078125 278.347656 720.078125 279.953125 719.089844 280.945312 C 718.101562 281.9375 716.496094 281.933594 715.503906 280.945312 C 711.347656 276.789062 704.582031 276.792969 700.421875 280.957031 C 699.929688 281.453125 699.277344 281.699219 698.628906 281.699219 Z M 698.628906 281.699219 " fill-opacity="1" fill-rule="nonzero"/><path fill="#031230" d="M 742.78125 281.699219 C 740.542969 281.699219 739.386719 278.972656 740.988281 277.371094 C 747.128906 271.226562 757.109375 271.222656 763.242188 277.359375 C 764.230469 278.347656 764.230469 279.953125 763.242188 280.945312 C 762.253906 281.9375 760.648438 281.933594 759.65625 280.945312 C 755.5 276.789062 748.734375 276.792969 744.574219 280.957031 C 744.078125 281.453125 743.429688 281.699219 742.78125 281.699219 Z M 742.78125 281.699219 " fill-opacity="1" fill-rule="nonzero"/><path fill="#031230" d="M 716.34375 293.160156 C 716.34375 297.800781 712.589844 301.558594 707.945312 301.558594 C 703.308594 301.558594 699.550781 297.800781 699.550781 293.160156 C 699.550781 288.515625 703.308594 284.753906 707.945312 284.753906 C 712.589844 284.753906 716.34375 288.515625 716.34375 293.160156 Z M 716.34375 293.160156 " fill-opacity="1" fill-rule="nonzero"/><path fill="#ffffff" d="M 714.398438 293.792969 C 714.398438 295.25 713.21875 296.429688 711.761719 296.429688 C 710.308594 296.429688 709.128906 295.25 709.128906 293.792969 C 709.128906 292.332031 710.308594 291.152344 711.761719 291.152344 C 713.21875 291.152344 714.398438 292.332031 714.398438 293.792969 Z M 714.398438 293.792969 " fill-opacity="1" fill-rule="nonzero"/><path fill="#432d6e" d="M 811.03125 658.449219 C 811.230469 662.628906 790.339844 666.757812 764.371094 667.679688 C 738.402344 668.601562 717.191406 665.964844 716.992188 661.78125 C 716.796875 657.605469 737.683594 653.476562 763.652344 652.558594 C 789.621094 651.636719 810.832031 654.273438 811.03125 658.449219 Z M 811.03125 658.449219 " fill-opacity="1" fill-rule="nonzero"/><path fill="#432d6e" d="M 926.769531 669.671875 C 926.929688 673.058594 905.699219 675.878906 879.347656 675.976562 C 852.996094 676.078125 831.503906 673.417969 831.34375 670.03125 C 831.183594 666.648438 852.414062 663.828125 878.765625 663.726562 C 905.117188 663.628906 926.609375 666.289062 926.769531 669.671875 Z M 926.769531 669.671875 " fill-opacity="1" fill-rule="nonzero"/><path fill="#432d6e" d="M 954.613281 644.835938 C 954.613281 647.574219 940.1875 649.792969 922.390625 649.792969 C 904.597656 649.792969 890.171875 647.574219 890.171875 644.835938 C 890.171875 642.097656 904.597656 639.878906 922.390625 639.878906 C 940.1875 639.878906 954.613281 642.097656 954.613281 644.835938 Z M 954.613281 644.835938 " fill-opacity="1" fill-rule="nonzero"/><path fill="#9d47ff" d="M 1031.621094 529.789062 C 1039.066406 534.839844 1039.460938 567.824219 1030.839844 569.65625 C 1025.03125 570.890625 1007.152344 569.65625 1007.152344 569.65625 C 1007.152344 569.65625 1009.851562 628.898438 1007.152344 645.839844 C 1006.296875 651.195312 963.640625 650.355469 962.828125 645.839844 C 960.085938 630.585938 962.828125 569.65625 962.828125 569.65625 C 962.828125 569.65625 883.566406 574.164062 866.179688 563.992188 C 856.664062 558.421875 862.222656 534.71875 865.054688 525.523438 C 875.898438 490.257812 913.621094 424.617188 934.265625 395.183594 C 941.160156 385.355469 987.804688 389.195312 984.214844 400.652344 C 973.640625 434.386719 916.398438 526.945312 916.398438 526.945312 L 962.828125 526.945312 C 962.828125 526.945312 962.601562 497.648438 964.542969 489.148438 C 967.011719 478.339844 1013.703125 477.1875 1016.578125 487.898438 C 1018.824219 496.253906 1007.152344 526.945312 1007.152344 526.945312 C 1007.152344 526.945312 1026.070312 526.023438 1031.621094 529.789062 Z M 1031.621094 529.789062 " fill-opacity="1" fill-rule="nonzero"/><path fill="#bd83ff" d="M 1042.742188 529.789062 C 1050.183594 534.839844 1050.582031 567.824219 1041.957031 569.65625 C 1036.152344 570.890625 1018.269531 569.65625 1018.269531 569.65625 C 1018.269531 569.65625 1020.96875 628.898438 1018.269531 645.839844 C 1017.414062 651.195312 974.761719 650.355469 973.949219 645.839844 C 971.203125 630.585938 973.949219 569.65625 973.949219 569.65625 C 973.949219 569.65625 894.683594 574.164062 877.300781 563.992188 C 867.78125 558.421875 873.34375 534.71875 876.171875 525.523438 C 887.019531 490.257812 924.738281 424.617188 945.382812 395.183594 C 952.277344 385.355469 994.230469 391.320312 990.640625 402.777344 C 980.066406 436.511719 927.515625 526.945312 927.515625 526.945312 L 973.949219 526.945312 C 973.949219 526.945312 973.71875 497.648438 975.660156 489.148438 C 978.132812 478.339844 1015.394531 477.261719 1018.269531 487.96875 C 1020.511719 496.324219 1018.269531 526.945312 1018.269531 526.945312 C 1018.269531 526.945312 1037.191406 526.023438 1042.742188 529.789062 Z M 1042.742188 529.789062 " fill-opacity="1" fill-rule="nonzero"/><path fill="#9d47ff" d="M 555.191406 529.789062 C 562.632812 534.839844 563.03125 567.824219 554.410156 569.65625 C 548.601562 570.890625 530.71875 569.65625 530.71875 569.65625 C 530.71875 569.65625 533.421875 628.898438 530.71875 645.839844 C 529.867188 651.195312 487.210938 650.355469 486.398438 645.839844 C 483.652344 630.585938 486.398438 569.65625 486.398438 569.65625 C 486.398438 569.65625 407.132812 574.164062 389.75 563.992188 C 380.230469 558.421875 385.792969 534.71875 388.621094 525.523438 C 399.46875 490.257812 437.1875 424.617188 457.835938 395.183594 C 464.726562 385.355469 511.375 389.195312 507.78125 400.652344 C 497.210938 434.386719 439.964844 526.945312 439.964844 526.945312 L 486.398438 526.945312 C 486.398438 526.945312 486.171875 497.648438 488.113281 489.148438 C 490.582031 478.339844 537.269531 477.1875 540.148438 487.898438 C 542.390625 496.253906 530.71875 526.945312 530.71875 526.945312 C 530.71875 526.945312 549.640625 526.023438 555.191406 529.789062 Z M 555.191406 529.789062 " fill-opacity="1" fill-rule="nonzero"/><path fill="#bd83ff" d="M 566.308594 529.789062 C 573.75 534.839844 574.148438 567.824219 565.527344 569.65625 C 559.71875 570.890625 541.839844 569.65625 541.839844 569.65625 C 541.839844 569.65625 544.539062 628.898438 541.839844 645.839844 C 540.984375 651.195312 498.328125 650.355469 497.515625 645.839844 C 494.773438 630.585938 497.515625 569.65625 497.515625 569.65625 C 497.515625 569.65625 418.253906 574.164062 400.867188 563.992188 C 391.351562 558.421875 396.910156 534.71875 399.742188 525.523438 C 410.585938 490.257812 448.308594 424.617188 468.953125 395.183594 C 475.847656 385.355469 517.800781 391.320312 514.207031 402.777344 C 503.636719 436.511719 451.085938 526.945312 451.085938 526.945312 L 497.515625 526.945312 C 497.515625 526.945312 497.289062 497.648438 499.230469 489.148438 C 501.699219 478.339844 538.960938 477.261719 541.839844 487.96875 C 544.082031 496.324219 541.839844 526.945312 541.839844 526.945312 C 541.839844 526.945312 560.757812 526.023438 566.308594 529.789062 Z M 566.308594 529.789062 " fill-opacity="1" fill-rule="nonzero"/><path fill="#8ebc5f" d="M 695.210938 635.5 C 696.101562 635.792969 699.917969 636.457031 702.582031 638.546875 C 704.664062 640.207031 706.046875 643.152344 705.101562 645.648438 C 704.402344 647.480469 702.621094 649.222656 700.734375 649.777344 C 698.949219 650.335938 590.996094 651.265625 556.511719 649.777344 C 529.648438 648.617188 522.167969 622.734375 521.824219 614.050781 C 521.679688 610.515625 522.140625 606.480469 524.359375 603.707031 C 526.941406 600.339844 531.402344 598.902344 535.660156 598.4375 C 542.847656 597.621094 550.273438 598.980469 556.710938 602.28125 C 552.6875 598.0625 553.167969 590.757812 556.976562 586.457031 C 563.550781 579.0625 577.296875 580.007812 584.289062 589.820312 C 584.023438 578.972656 588.273438 568.085938 595.84375 560.3125 C 603.601562 552.3125 611.855469 550.519531 622.035156 555.46875 C 634.179688 561.320312 638.625 571.871094 636.414062 580.398438 C 636.425781 580.410156 636.414062 580.410156 636.414062 580.410156 C 636.210938 581.199219 635.980469 581.808594 635.792969 582.339844 C 635.855469 582.46875 636.238281 583.277344 636.175781 583.144531 L 636.175781 583.15625 L 636.292969 583.378906 L 636.386719 583.566406 C 640.503906 577.246094 646.542969 572.675781 653.1875 570.316406 C 657.722656 568.628906 663.601562 567.679688 667.761719 570.234375 C 671.246094 572.359375 672.972656 576.597656 673.171875 580.6875 C 673.339844 584.765625 672.195312 588.777344 671.058594 592.699219 C 708.988281 583.6875 721.359375 618.25 695.210938 635.5 Z M 695.210938 635.5 " fill-opacity="1" fill-rule="nonzero"/><path fill="#ffffff" d="M 636.175781 583.15625 L 636.292969 583.378906 C 636.148438 583.578125 636.03125 583.777344 635.925781 583.976562 C 636.015625 583.699219 636.109375 583.421875 636.175781 583.144531 Z M 636.175781 583.15625 " fill-opacity="1" fill-rule="nonzero"/><path fill="#ffffff" d="M 636.414062 580.398438 C 636.042969 574.003906 630.089844 567.644531 617.828125 568.296875 C 603.003906 569.085938 589.15625 579.5 584.261719 593.515625 C 580.109375 588.632812 573.171875 586.296875 566.90625 587.695312 C 561.378906 588.925781 556.59375 592.976562 554.375 598.175781 C 553.941406 596.722656 553.808594 595.179688 553.953125 593.636719 C 555.1875 580.011719 575.070312 576.878906 584.289062 589.820312 C 583.8125 570.28125 597.574219 554.785156 608.453125 552.933594 C 613.066406 552.179688 617.828125 553.421875 622.035156 555.46875 C 634.179688 561.320312 638.625 571.871094 636.414062 580.398438 Z M 636.414062 580.398438 " fill-opacity="0.4" fill-rule="nonzero"/><path fill="#ffffff" d="M 706.933594 622.445312 C 704.335938 628.046875 700.320312 631.4375 700.15625 631.617188 C 699.984375 631.433594 699.824219 631.234375 699.679688 631.023438 C 700.683594 624.175781 700.933594 617.101562 699.074219 610.4375 C 697.226562 603.785156 693.074219 597.542969 686.953125 594.335938 C 680.832031 591.128906 672.695312 591.484375 667.566406 596.117188 C 669.386719 588.160156 664.636719 579.222656 657.011719 576.292969 C 650.960938 573.972656 643.71875 575.6875 638.996094 580.082031 C 642.757812 575.671875 647.726562 572.253906 653.1875 570.316406 C 657.722656 568.628906 663.601562 567.679688 667.761719 570.234375 C 671.246094 572.359375 672.972656 576.597656 673.171875 580.6875 C 673.339844 584.765625 672.195312 588.777344 671.058594 592.699219 C 677.890625 591.074219 685.121094 590.453125 691.886719 592.289062 C 698.664062 594.109375 704.929688 598.664062 707.605469 605.15625 C 709.875 610.632812 709.386719 617.035156 706.933594 622.445312 Z M 706.933594 622.445312 " fill-opacity="0.4" fill-rule="nonzero"/><path fill="#eeebff" d="M 1040.386719 213.875 C 1040.121094 214.988281 1039.535156 216.03125 1038.675781 216.804688 C 1034.308594 220.65625 1020.570312 219.117188 1013.484375 209.066406 C 1007.683594 218.015625 997.285156 221.628906 986.769531 223.5625 C 969.800781 226.617188 952.160156 225.78125 935.585938 221.152344 C 930.347656 219.667969 924.945312 217.699219 921.621094 213.304688 C 916.414062 215.863281 910.46875 216.890625 904.714844 216.167969 C 902.382812 215.863281 899.976562 215.257812 898.128906 213.8125 C 896.265625 212.328125 895.058594 209.839844 895.679688 207.546875 C 896.429688 204.644531 899.773438 203.082031 902.765625 203.3125 C 905.753906 203.539062 908.453125 205.125 911.015625 206.660156 C 910.410156 200.726562 906.039062 196.023438 902.449219 191.203125 C 899.253906 186.929688 896.503906 181.410156 897.707031 176.402344 C 900.421875 165.070312 924.398438 162.023438 938.84375 176.035156 C 936.421875 170.796875 933.949219 165.445312 933.128906 159.703125 C 932.292969 153.996094 933.292969 147.734375 937.09375 143.382812 C 944.875 134.425781 965.175781 134.480469 978.496094 146.832031 C 985.199219 153.046875 989.46875 161.859375 990.140625 170.976562 C 995.109375 164.304688 1005.714844 162.746094 1012.34375 167.730469 C 1019.113281 172.78125 1020.453125 183.488281 1015.523438 189.957031 C 1022.113281 189.617188 1028.804688 191.113281 1034.59375 194.246094 C 1037.34375 195.714844 1040.082031 197.84375 1040.742188 200.875 C 1041.324219 203.691406 1038.964844 207.078125 1036.253906 206.773438 C 1038.949219 207.367188 1041.222656 210.597656 1040.386719 213.875 Z M 1040.386719 213.875 " fill-opacity="1" fill-rule="nonzero"/><path fill="#6b9b3c" d="M 687.621094 650.148438 C 657.5 650.617188 583.9375 650.957031 556.507812 649.78125 C 529.644531 648.613281 522.167969 622.730469 521.824219 614.058594 C 521.683594 610.507812 522.144531 606.46875 524.359375 603.710938 C 528.378906 611.769531 532.332031 618.835938 538.449219 625.648438 C 540.945312 628.4375 543.734375 631.113281 547.195312 632.507812 C 550.652344 633.917969 554.949219 633.800781 557.800781 631.378906 C 562.386719 627.472656 561.324219 619.929688 564.683594 614.933594 C 567.480469 610.785156 573.464844 609.152344 577.976562 611.332031 C 582.488281 613.5 584.957031 619.195312 583.460938 623.976562 C 587.300781 618.636719 591.839844 613.640625 597.566406 610.40625 C 603.28125 607.160156 610.339844 605.839844 616.550781 607.996094 C 622.757812 610.152344 627.738281 616.214844 627.550781 622.796875 C 630.984375 615.65625 639.105469 611.089844 646.976562 611.878906 C 654.84375 612.664062 661.914062 618.738281 663.878906 626.410156 C 666.71875 621.25 673.410156 618.574219 679.023438 620.375 C 684.625 622.160156 688.539062 628.210938 687.867188 634.070312 C 694.980469 635.558594 698.292969 649.207031 687.621094 650.148438 Z M 687.621094 650.148438 " fill-opacity="1" fill-rule="nonzero"/><path fill="#ffffff" d="M 636.039062 582.863281 L 636.179688 583.15625 C 636.128906 583.347656 636.078125 583.535156 636.039062 583.738281 C 636.050781 583.449219 636.050781 583.15625 636.039062 582.863281 Z M 636.039062 582.863281 " fill-opacity="1" fill-rule="nonzero"/><path fill="#ffc2ab" d="M 946.472656 327.492188 C 940.828125 333.867188 911.03125 348.820312 900.535156 345.652344 C 890.035156 342.496094 883.574219 343.128906 880.59375 347.15625 C 860.675781 374.039062 848.027344 445.214844 827.429688 451.539062 C 806.722656 457.902344 782.9375 429.601562 779.113281 415.523438 L 808.882812 376.824219 C 811.945312 383.246094 816.628906 393.066406 816.628906 393.066406 C 816.628906 393.082031 843.597656 332.214844 873.839844 322.121094 C 873.839844 322.121094 889.257812 314.121094 899.992188 315.824219 C 910.742188 317.527344 912.640625 312.261719 914.660156 310.585938 C 922.640625 303.960938 936.5 316.101562 905.664062 327.542969 C 905.664062 327.542969 928.085938 333.484375 936.660156 322.976562 C 946.65625 310.675781 952.144531 321.105469 946.472656 327.492188 Z M 946.472656 327.492188 " fill-opacity="1" fill-rule="nonzero"/><path fill="#fd8169" d="M 887.128906 329.386719 C 888.941406 331.621094 892.074219 332.203125 894.921875 332.445312 C 903.984375 333.207031 913.210938 332.089844 921.828125 329.160156 C 913.578125 329.691406 905.59375 327.574219 905.59375 327.574219 C 905.617188 327.5625 905.632812 327.5625 905.65625 327.550781 L 905.617188 327.550781 C 899.953125 330.378906 893.238281 331.050781 887.128906 329.386719 Z M 887.128906 329.386719 " fill-opacity="1" fill-rule="nonzero"/><path fill="#ffc2ab" d="M 509.859375 327.492188 C 515.503906 333.867188 545.296875 348.820312 555.796875 345.652344 C 566.296875 342.496094 572.757812 343.128906 575.738281 347.15625 C 595.65625 374.039062 608.304688 445.214844 628.902344 451.539062 C 649.609375 457.902344 673.390625 429.601562 677.21875 415.523438 L 647.449219 376.824219 C 643.878906 383.089844 638.75 391.882812 638.75 391.882812 C 638.75 391.898438 612.734375 332.214844 582.492188 322.121094 C 582.492188 322.121094 567.074219 314.121094 556.339844 315.824219 C 545.589844 317.527344 543.691406 312.261719 541.671875 310.585938 C 533.691406 303.960938 519.832031 316.101562 550.667969 327.542969 C 550.667969 327.542969 528.246094 333.484375 519.671875 322.976562 C 509.675781 310.675781 504.1875 321.105469 509.859375 327.492188 Z M 509.859375 327.492188 " fill-opacity="1" fill-rule="nonzero"/><path fill="#fd8169" d="M 569.203125 329.386719 C 567.390625 331.621094 564.257812 332.203125 561.40625 332.445312 C 552.347656 333.207031 543.121094 332.089844 534.503906 329.160156 C 542.753906 329.691406 550.738281 327.574219 550.738281 327.574219 C 550.710938 327.5625 550.699219 327.5625 550.675781 327.550781 L 550.710938 327.550781 C 556.378906 330.378906 563.09375 331.050781 569.203125 329.386719 Z M 569.203125 329.386719 " fill-opacity="1" fill-rule="nonzero"/><path fill="#dcd9fc" d="M 1040.386719 213.875 C 1040.121094 214.988281 1039.535156 216.03125 1038.675781 216.804688 C 1034.308594 220.65625 1020.570312 219.117188 1013.484375 209.066406 C 1007.683594 218.015625 997.285156 221.628906 986.769531 223.5625 C 969.800781 226.617188 952.160156 225.78125 935.585938 221.152344 C 930.347656 219.667969 924.945312 217.699219 921.621094 213.304688 C 916.414062 215.863281 910.46875 216.890625 904.714844 216.167969 C 902.382812 215.863281 899.976562 215.257812 898.128906 213.8125 C 896.265625 212.328125 895.058594 209.839844 895.679688 207.546875 C 896.429688 204.644531 899.773438 203.082031 902.765625 203.3125 C 905.753906 203.539062 908.453125 205.125 911.015625 206.660156 C 910.9375 205.910156 910.800781 205.1875 910.621094 204.492188 C 917.234375 210.257812 929.53125 214.292969 941.261719 213.050781 C 952.679688 211.820312 963.515625 205.820312 970.613281 196.78125 C 969.027344 201.535156 967.457031 206.289062 965.871094 211.058594 C 972.769531 209.050781 977.105469 202.4375 983.675781 199.847656 C 986.960938 198.554688 990.925781 198.441406 993.800781 200.496094 C 996.527344 202.449219 997.605469 206.695312 995.628906 209.335938 C 1000.910156 203.144531 1011.316406 202.167969 1017.589844 207.382812 C 1020.160156 209.523438 1022.011719 212.453125 1024.734375 214.394531 C 1029.296875 217.628906 1036.0625 217.285156 1040.273438 213.59375 C 1040.308594 213.683594 1040.347656 213.785156 1040.386719 213.875 Z M 1040.386719 213.875 " fill-opacity="1" fill-rule="nonzero"/><path fill="#ffffff" d="M 1016.953125 187.5625 C 1016.652344 187.839844 1016.332031 188.09375 1016.003906 188.335938 C 1016.574219 181.285156 1011.886719 174.160156 1005.195312 171.890625 C 998.503906 169.617188 990.445312 172.433594 986.628906 178.367188 C 984.605469 156.992188 968.046875 141.554688 957.851562 140.769531 C 951.640625 140.289062 945.597656 144.144531 942.378906 149.484375 C 939.148438 154.808594 938.4375 161.363281 939.171875 167.550781 C 939.90625 173.738281 941.984375 179.6875 944.0625 185.558594 C 932.277344 173.714844 913.117188 169.9375 897.707031 176.402344 C 900.421875 165.070312 924.398438 162.023438 938.84375 176.035156 C 936.421875 170.796875 933.949219 165.445312 933.128906 159.703125 C 931.191406 146.496094 938.746094 137.117188 953.503906 137.054688 C 972.675781 137.003906 988.734375 151.921875 990.140625 170.976562 C 995.109375 164.304688 1005.714844 162.746094 1012.34375 167.730469 C 1018.261719 172.144531 1020.121094 180.980469 1016.953125 187.5625 Z M 1016.953125 187.5625 " fill-opacity="0.6" fill-rule="nonzero"/><path fill="#dcd9fc" d="M 945.417969 199.109375 C 953.785156 195.792969 960.609375 188.898438 964.273438 180.675781 C 965.601562 186.339844 963.148438 192.4375 959.207031 196.714844 C 955.265625 200.992188 949.707031 203.539062 943.996094 204.640625 C 938.289062 205.746094 928.410156 204.484375 922.015625 202.449219 C 922.015625 202.449219 934.636719 203.382812 945.417969 199.109375 Z M 945.417969 199.109375 " fill-opacity="1" fill-rule="nonzero"/><path fill="#eeebff" d="M 545.050781 220.226562 C 544.902344 221.113281 544.457031 221.9375 543.785156 222.546875 C 540.730469 225.261719 530.96875 224.230469 525.917969 217.070312 C 521.824219 223.429688 514.414062 226.003906 506.984375 227.339844 C 487.582031 230.835938 468.863281 226.277344 463.542969 222.636719 C 462.492188 221.9375 461.554688 221.078125 460.792969 220.074219 C 457.09375 221.886719 452.886719 222.625 448.808594 222.105469 C 447.160156 221.886719 445.449219 221.457031 444.128906 220.429688 C 440.398438 217.488281 442.691406 212.617188 447.425781 212.988281 C 449.5 213.152344 451.460938 214.269531 453.28125 215.371094 C 452.835938 211.160156 449.71875 207.800781 447.199219 204.402344 C 446.007812 202.804688 444.902344 200.976562 444.257812 199.074219 C 443.511719 196.945312 443.34375 194.714844 444.257812 192.671875 C 447.402344 185.761719 463.246094 184.167969 472.996094 193.648438 C 471.289062 189.933594 469.539062 186.140625 468.957031 182.070312 C 465.316406 157.355469 507.515625 162.007812 509.378906 190.058594 C 512.734375 185.4375 520.34375 184.164062 525.117188 187.765625 C 529.847656 191.289062 530.921875 198.808594 527.363281 203.515625 C 532.039062 203.273438 536.777344 204.339844 540.894531 206.558594 C 542.835938 207.597656 544.785156 209.117188 545.242188 211.273438 C 545.660156 213.238281 544.011719 215.65625 542.0625 215.445312 C 543.855469 215.832031 545.492188 217.949219 545.050781 220.226562 Z M 545.050781 220.226562 " fill-opacity="1" fill-rule="nonzero"/><path fill="#ffffff" d="M 509.328125 189.488281 C 507.707031 190.046875 506.199219 190.949219 504.984375 192.175781 C 503.4375 187.257812 501.867188 182.261719 499.050781 177.9375 C 496.25 173.613281 491.992188 169.960938 486.925781 169.046875 C 481.855469 168.136719 476.039062 170.570312 474.085938 175.335938 C 471.199219 182.402344 477.257812 190.972656 473.921875 197.832031 C 470.550781 193.027344 464.648438 190.125 458.78125 190.363281 C 452.925781 190.617188 447.285156 194.027344 444.332031 199.101562 L 444.257812 199.074219 C 443.511719 196.945312 443.34375 194.714844 444.257812 192.671875 C 447.402344 185.761719 463.246094 184.167969 472.996094 193.648438 C 471.289062 189.933594 469.539062 186.140625 468.957031 182.070312 C 465.371094 157.71875 506.625 161.695312 509.328125 189.488281 Z M 509.328125 189.488281 " fill-opacity="0.6" fill-rule="nonzero"/><path fill="#ffffff" d="M 544.886719 213.609375 C 544.191406 213.988281 543.441406 214.242188 542.644531 214.367188 C 539.691406 207.332031 531.289062 203.082031 523.878906 204.882812 C 525.980469 199.964844 524.128906 193.671875 519.695312 190.695312 C 516.894531 188.816406 513.269531 188.386719 510.039062 189.273438 C 513.765625 185.230469 520.695312 184.429688 525.117188 187.765625 C 529.847656 191.289062 530.921875 198.808594 527.363281 203.515625 C 532.039062 203.273438 536.777344 204.339844 540.894531 206.558594 C 543.761719 208.09375 546.347656 210.734375 544.886719 213.609375 Z M 544.886719 213.609375 " fill-opacity="0.6" fill-rule="nonzero"/><path fill="#dcd9fc" d="M 545.050781 220.226562 C 544.902344 221.113281 544.457031 221.9375 543.785156 222.546875 C 540.730469 225.261719 530.96875 224.230469 525.917969 217.070312 C 521.824219 223.429688 514.414062 226.003906 506.984375 227.339844 C 487.582031 230.835938 468.863281 226.277344 463.542969 222.636719 C 462.492188 221.9375 461.554688 221.078125 460.792969 220.074219 C 457.09375 221.886719 452.886719 222.625 448.808594 222.105469 C 447.160156 221.886719 445.449219 221.457031 444.128906 220.429688 C 440.398438 217.488281 442.691406 212.617188 447.425781 212.988281 C 449.464844 213.152344 451.316406 214.203125 453.089844 215.257812 C 453.265625 215.457031 453.496094 215.648438 453.738281 215.8125 C 455.980469 217.359375 459.3125 217.765625 461.949219 217.933594 C 472.824219 218.582031 482.175781 212.941406 490.992188 206.582031 C 484.46875 212.902344 487.574219 221.699219 493.730469 222.191406 C 496.820312 222.445312 499.597656 220.390625 501.828125 218.234375 C 504.042969 216.066406 506.1875 213.582031 509.125 212.59375 C 512.066406 211.605469 516.058594 212.949219 516.527344 216.015625 C 520.613281 209.910156 530.113281 211.617188 531.847656 218.78125 C 533.992188 217.488281 536.074219 220.738281 537.15625 221.597656 C 539.515625 223.511719 543.355469 222.597656 545.050781 220.226562 Z M 545.050781 220.226562 " fill-opacity="1" fill-rule="nonzero"/><path fill="#ffffff" d="M 806.207031 373.207031 C 808.59375 375.886719 810.472656 379.042969 811.726562 382.792969 L 778.738281 423.328125 L 769.171875 411.394531 Z M 806.207031 373.207031 " fill-opacity="1" fill-rule="nonzero"/><path fill="#ffffff" d="M 649.972656 373.433594 C 647.585938 376.113281 646.203125 378.855469 644.128906 382.605469 L 677.441406 423.554688 L 687.007812 411.621094 Z M 649.972656 373.433594 " fill-opacity="1" fill-rule="nonzero"/><path fill="#031230" d="M 671.636719 282.910156 C 663.757812 275.632812 660.417969 262.851562 664.421875 252.898438 C 668.425781 242.945312 678.933594 235.996094 689.65625 236.210938 C 683.574219 234.355469 679.265625 228.199219 678.957031 221.84375 C 678.652344 215.488281 682.027344 209.230469 687.125 205.429688 C 698.5625 196.902344 716.988281 200.320312 718.328125 210.316406 C 723.121094 205.109375 729.316406 200.875 736.3125 199.800781 C 743.308594 198.730469 751.101562 201.34375 754.949219 207.285156 C 758.796875 213.230469 757.414062 222.371094 751.289062 225.921875 C 756.304688 222.230469 762.476562 219.789062 768.679688 220.304688 C 774.882812 220.820312 780.980469 224.714844 783.03125 230.597656 C 785.078125 236.476562 782.097656 243.96875 776.1875 245.921875 C 781.476562 244.382812 787.382812 247.421875 790.246094 252.132812 C 793.109375 256.839844 793.316406 262.785156 792.015625 268.140625 C 790.71875 273.496094 789.71875 275.445312 787.082031 280.285156 C 781.773438 273.871094 771.234375 272.761719 772.847656 281.699219 C 770.21875 269.324219 763.320312 257.824219 753.453125 249.78125 C 751.355469 256.445312 743.953125 260.191406 736.949219 260.761719 C 729.945312 261.328125 722.992188 259.492188 716.003906 258.6875 C 709.011719 257.882812 701.34375 258.320312 695.867188 262.6875 C 689.828125 267.5 688.75 275.664062 687.625 283.488281 C 689.398438 271.375 675.761719 274.203125 671.636719 282.910156 Z M 671.636719 282.910156 " fill-opacity="1" fill-rule="nonzero"/><g fill="#f5edff" fill-opacity="1"><g transform="translate(512.103484, 741.374983)"><g><path d="M 10.8125 0 L 7.984375 0 L 7.984375 -21.765625 L 0.296875 -21.765625 L 0.296875 -24.265625 L 18.5 -24.265625 L 18.5 -21.765625 L 10.8125 -21.765625 Z M 10.8125 0 "/></g></g></g><g fill="#f5edff" fill-opacity="1"><g transform="translate(530.910898, 741.374983)"><g><path d="M 14.109375 0 L 13.5625 -2.59375 L 13.4375 -2.59375 C 12.519531 -1.445312 11.609375 -0.671875 10.703125 -0.265625 C 9.804688 0.128906 8.6875 0.328125 7.34375 0.328125 C 5.53125 0.328125 4.113281 -0.132812 3.09375 -1.0625 C 2.070312 -1.988281 1.5625 -3.3125 1.5625 -5.03125 C 1.5625 -8.707031 4.5 -10.632812 10.375 -10.8125 L 13.46875 -10.90625 L 13.46875 -12.03125 C 13.46875 -13.457031 13.160156 -14.507812 12.546875 -15.1875 C 11.929688 -15.875 10.945312 -16.21875 9.59375 -16.21875 C 8.082031 -16.21875 6.367188 -15.753906 4.453125 -14.828125 L 3.609375 -16.9375 C 4.503906 -17.425781 5.484375 -17.804688 6.546875 -18.078125 C 7.617188 -18.359375 8.691406 -18.5 9.765625 -18.5 C 11.929688 -18.5 13.535156 -18.015625 14.578125 -17.046875 C 15.628906 -16.085938 16.15625 -14.546875 16.15625 -12.421875 L 16.15625 0 Z M 7.890625 -1.9375 C 9.597656 -1.9375 10.941406 -2.40625 11.921875 -3.34375 C 12.898438 -4.289062 13.390625 -5.613281 13.390625 -7.3125 L 13.390625 -8.953125 L 10.640625 -8.828125 C 8.453125 -8.753906 6.875 -8.414062 5.90625 -7.8125 C 4.9375 -7.207031 4.453125 -6.269531 4.453125 -5 C 4.453125 -4 4.753906 -3.238281 5.359375 -2.71875 C 5.960938 -2.195312 6.804688 -1.9375 7.890625 -1.9375 Z M 7.890625 -1.9375 "/></g></g></g><g fill="#f5edff" fill-opacity="1"><g transform="translate(549.817911, 741.374983)"><g><path d="M 26.109375 0 L 26.109375 -11.84375 C 26.109375 -13.289062 25.796875 -14.375 25.171875 -15.09375 C 24.554688 -15.820312 23.597656 -16.1875 22.296875 -16.1875 C 20.578125 -16.1875 19.304688 -15.691406 18.484375 -14.703125 C 17.671875 -13.722656 17.265625 -12.207031 17.265625 -10.15625 L 17.265625 0 L 14.515625 0 L 14.515625 -11.84375 C 14.515625 -13.289062 14.203125 -14.375 13.578125 -15.09375 C 12.960938 -15.820312 11.992188 -16.1875 10.671875 -16.1875 C 8.941406 -16.1875 7.675781 -15.664062 6.875 -14.625 C 6.070312 -13.59375 5.671875 -11.898438 5.671875 -9.546875 L 5.671875 0 L 2.921875 0 L 2.921875 -18.203125 L 5.15625 -18.203125 L 5.609375 -15.703125 L 5.75 -15.703125 C 6.269531 -16.585938 7 -17.28125 7.9375 -17.78125 C 8.882812 -18.28125 9.945312 -18.53125 11.125 -18.53125 C 13.96875 -18.53125 15.828125 -17.5 16.703125 -15.4375 L 16.828125 -15.4375 C 17.367188 -16.394531 18.15625 -17.148438 19.1875 -17.703125 C 20.21875 -18.253906 21.394531 -18.53125 22.71875 -18.53125 C 24.769531 -18.53125 26.304688 -18 27.328125 -16.9375 C 28.359375 -15.882812 28.875 -14.195312 28.875 -11.875 L 28.875 0 Z M 26.109375 0 "/></g></g></g><g fill="#f5edff" fill-opacity="1"><g transform="translate(581.440258, 741.374983)"><g><path d="M 11.390625 -18.5 C 13.773438 -18.5 15.628906 -17.679688 16.953125 -16.046875 C 18.273438 -14.410156 18.9375 -12.097656 18.9375 -9.109375 C 18.9375 -6.117188 18.269531 -3.796875 16.9375 -2.140625 C 15.601562 -0.492188 13.753906 0.328125 11.390625 0.328125 C 10.203125 0.328125 9.117188 0.109375 8.140625 -0.328125 C 7.160156 -0.765625 6.335938 -1.4375 5.671875 -2.34375 L 5.484375 -2.34375 L 4.890625 0 L 2.921875 0 L 2.921875 -25.828125 L 5.671875 -25.828125 L 5.671875 -19.5625 C 5.671875 -18.15625 5.628906 -16.890625 5.546875 -15.765625 L 5.671875 -15.765625 C 6.960938 -17.585938 8.867188 -18.5 11.390625 -18.5 Z M 10.984375 -16.1875 C 9.109375 -16.1875 7.753906 -15.644531 6.921875 -14.5625 C 6.085938 -13.488281 5.671875 -11.671875 5.671875 -9.109375 C 5.671875 -6.554688 6.097656 -4.726562 6.953125 -3.625 C 7.804688 -2.519531 9.175781 -1.96875 11.0625 -1.96875 C 12.75 -1.96875 14.007812 -2.582031 14.84375 -3.8125 C 15.675781 -5.050781 16.09375 -6.828125 16.09375 -9.140625 C 16.09375 -11.515625 15.675781 -13.28125 14.84375 -14.4375 C 14.007812 -15.601562 12.722656 -16.1875 10.984375 -16.1875 Z M 10.984375 -16.1875 "/></g></g></g><g fill="#f5edff" fill-opacity="1"><g transform="translate(602.27283, 741.374983)"><g><path d="M 14.109375 0 L 13.5625 -2.59375 L 13.4375 -2.59375 C 12.519531 -1.445312 11.609375 -0.671875 10.703125 -0.265625 C 9.804688 0.128906 8.6875 0.328125 7.34375 0.328125 C 5.53125 0.328125 4.113281 -0.132812 3.09375 -1.0625 C 2.070312 -1.988281 1.5625 -3.3125 1.5625 -5.03125 C 1.5625 -8.707031 4.5 -10.632812 10.375 -10.8125 L 13.46875 -10.90625 L 13.46875 -12.03125 C 13.46875 -13.457031 13.160156 -14.507812 12.546875 -15.1875 C 11.929688 -15.875 10.945312 -16.21875 9.59375 -16.21875 C 8.082031 -16.21875 6.367188 -15.753906 4.453125 -14.828125 L 3.609375 -16.9375 C 4.503906 -17.425781 5.484375 -17.804688 6.546875 -18.078125 C 7.617188 -18.359375 8.691406 -18.5 9.765625 -18.5 C 11.929688 -18.5 13.535156 -18.015625 14.578125 -17.046875 C 15.628906 -16.085938 16.15625 -14.546875 16.15625 -12.421875 L 16.15625 0 Z M 7.890625 -1.9375 C 9.597656 -1.9375 10.941406 -2.40625 11.921875 -3.34375 C 12.898438 -4.289062 13.390625 -5.613281 13.390625 -7.3125 L 13.390625 -8.953125 L 10.640625 -8.828125 C 8.453125 -8.753906 6.875 -8.414062 5.90625 -7.8125 C 4.9375 -7.207031 4.453125 -6.269531 4.453125 -5 C 4.453125 -4 4.753906 -3.238281 5.359375 -2.71875 C 5.960938 -2.195312 6.804688 -1.9375 7.890625 -1.9375 Z M 7.890625 -1.9375 "/></g></g></g><g fill="#f5edff" fill-opacity="1"><g transform="translate(621.179842, 741.374983)"><g><path d="M 15.375 0 L 15.375 -11.765625 C 15.375 -13.253906 15.035156 -14.363281 14.359375 -15.09375 C 13.679688 -15.820312 12.625 -16.1875 11.1875 -16.1875 C 9.269531 -16.1875 7.867188 -15.664062 6.984375 -14.625 C 6.109375 -13.582031 5.671875 -11.878906 5.671875 -9.515625 L 5.671875 0 L 2.921875 0 L 2.921875 -25.828125 L 5.671875 -25.828125 L 5.671875 -18.015625 C 5.671875 -17.078125 5.628906 -16.296875 5.546875 -15.671875 L 5.71875 -15.671875 C 6.257812 -16.546875 7.03125 -17.234375 8.03125 -17.734375 C 9.03125 -18.242188 10.171875 -18.5 11.453125 -18.5 C 13.679688 -18.5 15.347656 -17.96875 16.453125 -16.90625 C 17.566406 -15.851562 18.125 -14.175781 18.125 -11.875 L 18.125 0 Z M 15.375 0 "/></g></g></g><g fill="#f5edff" fill-opacity="1"><g transform="translate(642.045614, 741.374983)"><g><path d="M 5.640625 -9.3125 C 6.117188 -9.988281 6.84375 -10.875 7.8125 -11.96875 L 13.703125 -18.203125 L 16.96875 -18.203125 L 9.59375 -10.4375 L 17.484375 0 L 14.140625 0 L 7.71875 -8.59375 L 5.640625 -6.8125 L 5.640625 0 L 2.921875 0 L 2.921875 -25.828125 L 5.640625 -25.828125 L 5.640625 -12.140625 C 5.640625 -11.523438 5.597656 -10.582031 5.515625 -9.3125 Z M 5.640625 -9.3125 "/></g></g></g><g fill="#f5edff" fill-opacity="1"><g transform="translate(659.890248, 741.374983)"><g><path d="M 14.109375 0 L 13.5625 -2.59375 L 13.4375 -2.59375 C 12.519531 -1.445312 11.609375 -0.671875 10.703125 -0.265625 C 9.804688 0.128906 8.6875 0.328125 7.34375 0.328125 C 5.53125 0.328125 4.113281 -0.132812 3.09375 -1.0625 C 2.070312 -1.988281 1.5625 -3.3125 1.5625 -5.03125 C 1.5625 -8.707031 4.5 -10.632812 10.375 -10.8125 L 13.46875 -10.90625 L 13.46875 -12.03125 C 13.46875 -13.457031 13.160156 -14.507812 12.546875 -15.1875 C 11.929688 -15.875 10.945312 -16.21875 9.59375 -16.21875 C 8.082031 -16.21875 6.367188 -15.753906 4.453125 -14.828125 L 3.609375 -16.9375 C 4.503906 -17.425781 5.484375 -17.804688 6.546875 -18.078125 C 7.617188 -18.359375 8.691406 -18.5 9.765625 -18.5 C 11.929688 -18.5 13.535156 -18.015625 14.578125 -17.046875 C 15.628906 -16.085938 16.15625 -14.546875 16.15625 -12.421875 L 16.15625 0 Z M 7.890625 -1.9375 C 9.597656 -1.9375 10.941406 -2.40625 11.921875 -3.34375 C 12.898438 -4.289062 13.390625 -5.613281 13.390625 -7.3125 L 13.390625 -8.953125 L 10.640625 -8.828125 C 8.453125 -8.753906 6.875 -8.414062 5.90625 -7.8125 C 4.9375 -7.207031 4.453125 -6.269531 4.453125 -5 C 4.453125 -4 4.753906 -3.238281 5.359375 -2.71875 C 5.960938 -2.195312 6.804688 -1.9375 7.890625 -1.9375 Z M 7.890625 -1.9375 "/></g></g></g><g fill="#f5edff" fill-opacity="1"><g transform="translate(678.79726, 741.374983)"><g><path d="M 15.375 0 L 15.375 -11.765625 C 15.375 -13.253906 15.035156 -14.363281 14.359375 -15.09375 C 13.679688 -15.820312 12.625 -16.1875 11.1875 -16.1875 C 9.28125 -16.1875 7.882812 -15.671875 7 -14.640625 C 6.113281 -13.609375 5.671875 -11.910156 5.671875 -9.546875 L 5.671875 0 L 2.921875 0 L 2.921875 -18.203125 L 5.15625 -18.203125 L 5.609375 -15.703125 L 5.75 -15.703125 C 6.3125 -16.597656 7.097656 -17.289062 8.109375 -17.78125 C 9.128906 -18.28125 10.265625 -18.53125 11.515625 -18.53125 C 13.710938 -18.53125 15.363281 -18 16.46875 -16.9375 C 17.570312 -15.882812 18.125 -14.195312 18.125 -11.875 L 18.125 0 Z M 15.375 0 "/></g></g></g><g fill="#f5edff" fill-opacity="1"><g transform="translate(699.663032, 741.374983)"><g/></g></g><g fill="#f5edff" fill-opacity="1"><g transform="translate(708.494048, 741.374983)"><g><path d="M 14.65625 -4.96875 C 14.65625 -3.269531 14.023438 -1.960938 12.765625 -1.046875 C 11.503906 -0.128906 9.734375 0.328125 7.453125 0.328125 C 5.035156 0.328125 3.15625 -0.0507812 1.8125 -0.8125 L 1.8125 -3.375 C 2.6875 -2.925781 3.625 -2.570312 4.625 -2.3125 C 5.625 -2.0625 6.585938 -1.9375 7.515625 -1.9375 C 8.953125 -1.9375 10.054688 -2.164062 10.828125 -2.625 C 11.609375 -3.09375 12 -3.796875 12 -4.734375 C 12 -5.441406 11.691406 -6.046875 11.078125 -6.546875 C 10.460938 -7.054688 9.265625 -7.648438 7.484375 -8.328125 C 5.796875 -8.960938 4.59375 -9.515625 3.875 -9.984375 C 3.164062 -10.453125 2.632812 -10.984375 2.28125 -11.578125 C 1.9375 -12.179688 1.765625 -12.898438 1.765625 -13.734375 C 1.765625 -15.210938 2.363281 -16.378906 3.5625 -17.234375 C 4.769531 -18.097656 6.425781 -18.53125 8.53125 -18.53125 C 10.488281 -18.53125 12.40625 -18.128906 14.28125 -17.328125 L 13.296875 -15.09375 C 11.472656 -15.84375 9.816406 -16.21875 8.328125 -16.21875 C 7.023438 -16.21875 6.039062 -16.007812 5.375 -15.59375 C 4.71875 -15.1875 4.390625 -14.625 4.390625 -13.90625 C 4.390625 -13.425781 4.507812 -13.015625 4.75 -12.671875 C 5 -12.328125 5.398438 -12 5.953125 -11.6875 C 6.515625 -11.375 7.578125 -10.925781 9.140625 -10.34375 C 11.304688 -9.5625 12.765625 -8.769531 13.515625 -7.96875 C 14.273438 -7.175781 14.65625 -6.175781 14.65625 -4.96875 Z M 14.65625 -4.96875 "/></g></g></g><g fill="#f5edff" fill-opacity="1"><g transform="translate(724.711905, 741.374983)"><g><path d="M 10.609375 0.328125 C 7.921875 0.328125 5.796875 -0.488281 4.234375 -2.125 C 2.679688 -3.757812 1.90625 -6.035156 1.90625 -8.953125 C 1.90625 -11.878906 2.628906 -14.207031 4.078125 -15.9375 C 5.523438 -17.664062 7.460938 -18.53125 9.890625 -18.53125 C 12.171875 -18.53125 13.972656 -17.78125 15.296875 -16.28125 C 16.628906 -14.78125 17.296875 -12.800781 17.296875 -10.34375 L 17.296875 -8.59375 L 4.765625 -8.59375 C 4.816406 -6.457031 5.351562 -4.835938 6.375 -3.734375 C 7.40625 -2.628906 8.847656 -2.078125 10.703125 -2.078125 C 12.660156 -2.078125 14.597656 -2.484375 16.515625 -3.296875 L 16.515625 -0.84375 C 15.546875 -0.425781 14.625 -0.128906 13.75 0.046875 C 12.882812 0.234375 11.835938 0.328125 10.609375 0.328125 Z M 9.859375 -16.21875 C 8.398438 -16.21875 7.234375 -15.738281 6.359375 -14.78125 C 5.492188 -13.832031 4.984375 -12.519531 4.828125 -10.84375 L 14.34375 -10.84375 C 14.34375 -12.582031 13.953125 -13.910156 13.171875 -14.828125 C 12.398438 -15.753906 11.296875 -16.21875 9.859375 -16.21875 Z M 9.859375 -16.21875 "/></g></g></g><g fill="#f5edff" fill-opacity="1"><g transform="translate(743.784902, 741.374983)"><g><path d="M 15.3125 -2.4375 L 15.15625 -2.4375 C 13.882812 -0.59375 11.984375 0.328125 9.453125 0.328125 C 7.066406 0.328125 5.210938 -0.484375 3.890625 -2.109375 C 2.566406 -3.734375 1.90625 -6.046875 1.90625 -9.046875 C 1.90625 -12.046875 2.566406 -14.375 3.890625 -16.03125 C 5.222656 -17.695312 7.078125 -18.53125 9.453125 -18.53125 C 11.921875 -18.53125 13.8125 -17.632812 15.125 -15.84375 L 15.34375 -15.84375 L 15.21875 -17.15625 L 15.15625 -18.421875 L 15.15625 -25.828125 L 17.90625 -25.828125 L 17.90625 0 L 15.671875 0 Z M 9.796875 -1.96875 C 11.679688 -1.96875 13.046875 -2.476562 13.890625 -3.5 C 14.734375 -4.53125 15.15625 -6.1875 15.15625 -8.46875 L 15.15625 -9.046875 C 15.15625 -11.628906 14.722656 -13.46875 13.859375 -14.5625 C 13.003906 -15.664062 11.640625 -16.21875 9.765625 -16.21875 C 8.148438 -16.21875 6.910156 -15.585938 6.046875 -14.328125 C 5.191406 -13.078125 4.765625 -11.304688 4.765625 -9.015625 C 4.765625 -6.691406 5.191406 -4.9375 6.046875 -3.75 C 6.898438 -2.5625 8.148438 -1.96875 9.796875 -1.96875 Z M 9.796875 -1.96875 "/></g></g></g><g fill="#f5edff" fill-opacity="1"><g transform="translate(764.617474, 741.374983)"><g><path d="M 5.671875 0 L 2.921875 0 L 2.921875 -18.203125 L 5.671875 -18.203125 Z M 2.6875 -23.125 C 2.6875 -23.757812 2.84375 -24.222656 3.15625 -24.515625 C 3.46875 -24.804688 3.851562 -24.953125 4.3125 -24.953125 C 4.757812 -24.953125 5.140625 -24.800781 5.453125 -24.5 C 5.773438 -24.207031 5.9375 -23.75 5.9375 -23.125 C 5.9375 -22.507812 5.773438 -22.046875 5.453125 -21.734375 C 5.140625 -21.429688 4.757812 -21.28125 4.3125 -21.28125 C 3.851562 -21.28125 3.46875 -21.429688 3.15625 -21.734375 C 2.84375 -22.046875 2.6875 -22.507812 2.6875 -23.125 Z M 2.6875 -23.125 "/></g></g></g><g fill="#f5edff" fill-opacity="1"><g transform="translate(773.216083, 741.374983)"><g><path d="M 5.640625 -9.3125 C 6.117188 -9.988281 6.84375 -10.875 7.8125 -11.96875 L 13.703125 -18.203125 L 16.96875 -18.203125 L 9.59375 -10.4375 L 17.484375 0 L 14.140625 0 L 7.71875 -8.59375 L 5.640625 -6.8125 L 5.640625 0 L 2.921875 0 L 2.921875 -25.828125 L 5.640625 -25.828125 L 5.640625 -12.140625 C 5.640625 -11.523438 5.597656 -10.582031 5.515625 -9.3125 Z M 5.640625 -9.3125 "/></g></g></g><g fill="#f5edff" fill-opacity="1"><g transform="translate(791.060717, 741.374983)"><g><path d="M 5.671875 0 L 2.921875 0 L 2.921875 -18.203125 L 5.671875 -18.203125 Z M 2.6875 -23.125 C 2.6875 -23.757812 2.84375 -24.222656 3.15625 -24.515625 C 3.46875 -24.804688 3.851562 -24.953125 4.3125 -24.953125 C 4.757812 -24.953125 5.140625 -24.800781 5.453125 -24.5 C 5.773438 -24.207031 5.9375 -23.75 5.9375 -23.125 C 5.9375 -22.507812 5.773438 -22.046875 5.453125 -21.734375 C 5.140625 -21.429688 4.757812 -21.28125 4.3125 -21.28125 C 3.851562 -21.28125 3.46875 -21.429688 3.15625 -21.734375 C 2.84375 -22.046875 2.6875 -22.507812 2.6875 -23.125 Z M 2.6875 -23.125 "/></g></g></g><g fill="#f5edff" fill-opacity="1"><g transform="translate(799.65935, 741.374983)"><g><path d="M 8.796875 -1.9375 C 9.285156 -1.9375 9.753906 -1.972656 10.203125 -2.046875 C 10.660156 -2.117188 11.023438 -2.195312 11.296875 -2.28125 L 11.296875 -0.171875 C 10.992188 -0.0234375 10.550781 0.09375 9.96875 0.1875 C 9.382812 0.28125 8.863281 0.328125 8.40625 0.328125 C 4.882812 0.328125 3.125 -1.523438 3.125 -5.234375 L 3.125 -16.046875 L 0.515625 -16.046875 L 0.515625 -17.375 L 3.125 -18.53125 L 4.28125 -22.40625 L 5.875 -22.40625 L 5.875 -18.203125 L 11.15625 -18.203125 L 11.15625 -16.046875 L 5.875 -16.046875 L 5.875 -5.34375 C 5.875 -4.25 6.132812 -3.40625 6.65625 -2.8125 C 7.175781 -2.226562 7.890625 -1.9375 8.796875 -1.9375 Z M 8.796875 -1.9375 "/></g></g></g><g fill="#f5edff" fill-opacity="1"><g transform="translate(811.660906, 741.374983)"><g/></g></g><g fill="#f5edff" fill-opacity="1"><g transform="translate(820.491922, 741.374983)"><g><path d="M 8.796875 -1.9375 C 9.285156 -1.9375 9.753906 -1.972656 10.203125 -2.046875 C 10.660156 -2.117188 11.023438 -2.195312 11.296875 -2.28125 L 11.296875 -0.171875 C 10.992188 -0.0234375 10.550781 0.09375 9.96875 0.1875 C 9.382812 0.28125 8.863281 0.328125 8.40625 0.328125 C 4.882812 0.328125 3.125 -1.523438 3.125 -5.234375 L 3.125 -16.046875 L 0.515625 -16.046875 L 0.515625 -17.375 L 3.125 -18.53125 L 4.28125 -22.40625 L 5.875 -22.40625 L 5.875 -18.203125 L 11.15625 -18.203125 L 11.15625 -16.046875 L 5.875 -16.046875 L 5.875 -5.34375 C 5.875 -4.25 6.132812 -3.40625 6.65625 -2.8125 C 7.175781 -2.226562 7.890625 -1.9375 8.796875 -1.9375 Z M 8.796875 -1.9375 "/></g></g></g><g fill="#f5edff" fill-opacity="1"><g transform="translate(832.493477, 741.374983)"><g><path d="M 10.609375 0.328125 C 7.921875 0.328125 5.796875 -0.488281 4.234375 -2.125 C 2.679688 -3.757812 1.90625 -6.035156 1.90625 -8.953125 C 1.90625 -11.878906 2.628906 -14.207031 4.078125 -15.9375 C 5.523438 -17.664062 7.460938 -18.53125 9.890625 -18.53125 C 12.171875 -18.53125 13.972656 -17.78125 15.296875 -16.28125 C 16.628906 -14.78125 17.296875 -12.800781 17.296875 -10.34375 L 17.296875 -8.59375 L 4.765625 -8.59375 C 4.816406 -6.457031 5.351562 -4.835938 6.375 -3.734375 C 7.40625 -2.628906 8.847656 -2.078125 10.703125 -2.078125 C 12.660156 -2.078125 14.597656 -2.484375 16.515625 -3.296875 L 16.515625 -0.84375 C 15.546875 -0.425781 14.625 -0.128906 13.75 0.046875 C 12.882812 0.234375 11.835938 0.328125 10.609375 0.328125 Z M 9.859375 -16.21875 C 8.398438 -16.21875 7.234375 -15.738281 6.359375 -14.78125 C 5.492188 -13.832031 4.984375 -12.519531 4.828125 -10.84375 L 14.34375 -10.84375 C 14.34375 -12.582031 13.953125 -13.910156 13.171875 -14.828125 C 12.398438 -15.753906 11.296875 -16.21875 9.859375 -16.21875 Z M 9.859375 -16.21875 "/></g></g></g><g fill="#f5edff" fill-opacity="1"><g transform="translate(851.566498, 741.374983)"><g><path d="M 5.640625 -9.3125 C 6.117188 -9.988281 6.84375 -10.875 7.8125 -11.96875 L 13.703125 -18.203125 L 16.96875 -18.203125 L 9.59375 -10.4375 L 17.484375 0 L 14.140625 0 L 7.71875 -8.59375 L 5.640625 -6.8125 L 5.640625 0 L 2.921875 0 L 2.921875 -25.828125 L 5.640625 -25.828125 L 5.640625 -12.140625 C 5.640625 -11.523438 5.597656 -10.582031 5.515625 -9.3125 Z M 5.640625 -9.3125 "/></g></g></g><g fill="#f5edff" fill-opacity="1"><g transform="translate(869.411132, 741.374983)"><g><path d="M 14.65625 -4.96875 C 14.65625 -3.269531 14.023438 -1.960938 12.765625 -1.046875 C 11.503906 -0.128906 9.734375 0.328125 7.453125 0.328125 C 5.035156 0.328125 3.15625 -0.0507812 1.8125 -0.8125 L 1.8125 -3.375 C 2.6875 -2.925781 3.625 -2.570312 4.625 -2.3125 C 5.625 -2.0625 6.585938 -1.9375 7.515625 -1.9375 C 8.953125 -1.9375 10.054688 -2.164062 10.828125 -2.625 C 11.609375 -3.09375 12 -3.796875 12 -4.734375 C 12 -5.441406 11.691406 -6.046875 11.078125 -6.546875 C 10.460938 -7.054688 9.265625 -7.648438 7.484375 -8.328125 C 5.796875 -8.960938 4.59375 -9.515625 3.875 -9.984375 C 3.164062 -10.453125 2.632812 -10.984375 2.28125 -11.578125 C 1.9375 -12.179688 1.765625 -12.898438 1.765625 -13.734375 C 1.765625 -15.210938 2.363281 -16.378906 3.5625 -17.234375 C 4.769531 -18.097656 6.425781 -18.53125 8.53125 -18.53125 C 10.488281 -18.53125 12.40625 -18.128906 14.28125 -17.328125 L 13.296875 -15.09375 C 11.472656 -15.84375 9.816406 -16.21875 8.328125 -16.21875 C 7.023438 -16.21875 6.039062 -16.007812 5.375 -15.59375 C 4.71875 -15.1875 4.390625 -14.625 4.390625 -13.90625 C 4.390625 -13.425781 4.507812 -13.015625 4.75 -12.671875 C 5 -12.328125 5.398438 -12 5.953125 -11.6875 C 6.515625 -11.375 7.578125 -10.925781 9.140625 -10.34375 C 11.304688 -9.5625 12.765625 -8.769531 13.515625 -7.96875 C 14.273438 -7.175781 14.65625 -6.175781 14.65625 -4.96875 Z M 14.65625 -4.96875 "/></g></g></g><g fill="#f5edff" fill-opacity="1"><g transform="translate(885.629011, 741.374983)"><g/></g></g><g fill="#f5edff" fill-opacity="1"><g transform="translate(894.460027, 741.374983)"><g><path d="M 5.671875 0 L 2.921875 0 L 2.921875 -18.203125 L 5.671875 -18.203125 Z M 2.6875 -23.125 C 2.6875 -23.757812 2.84375 -24.222656 3.15625 -24.515625 C 3.46875 -24.804688 3.851562 -24.953125 4.3125 -24.953125 C 4.757812 -24.953125 5.140625 -24.800781 5.453125 -24.5 C 5.773438 -24.207031 5.9375 -23.75 5.9375 -23.125 C 5.9375 -22.507812 5.773438 -22.046875 5.453125 -21.734375 C 5.140625 -21.429688 4.757812 -21.28125 4.3125 -21.28125 C 3.851562 -21.28125 3.46875 -21.429688 3.15625 -21.734375 C 2.84375 -22.046875 2.6875 -22.507812 2.6875 -23.125 Z M 2.6875 -23.125 "/></g></g></g><g fill="#f5edff" fill-opacity="1"><g transform="translate(903.058637, 741.374983)"><g><path d="M 14.65625 -4.96875 C 14.65625 -3.269531 14.023438 -1.960938 12.765625 -1.046875 C 11.503906 -0.128906 9.734375 0.328125 7.453125 0.328125 C 5.035156 0.328125 3.15625 -0.0507812 1.8125 -0.8125 L 1.8125 -3.375 C 2.6875 -2.925781 3.625 -2.570312 4.625 -2.3125 C 5.625 -2.0625 6.585938 -1.9375 7.515625 -1.9375 C 8.953125 -1.9375 10.054688 -2.164062 10.828125 -2.625 C 11.609375 -3.09375 12 -3.796875 12 -4.734375 C 12 -5.441406 11.691406 -6.046875 11.078125 -6.546875 C 10.460938 -7.054688 9.265625 -7.648438 7.484375 -8.328125 C 5.796875 -8.960938 4.59375 -9.515625 3.875 -9.984375 C 3.164062 -10.453125 2.632812 -10.984375 2.28125 -11.578125 C 1.9375 -12.179688 1.765625 -12.898438 1.765625 -13.734375 C 1.765625 -15.210938 2.363281 -16.378906 3.5625 -17.234375 C 4.769531 -18.097656 6.425781 -18.53125 8.53125 -18.53125 C 10.488281 -18.53125 12.40625 -18.128906 14.28125 -17.328125 L 13.296875 -15.09375 C 11.472656 -15.84375 9.816406 -16.21875 8.328125 -16.21875 C 7.023438 -16.21875 6.039062 -16.007812 5.375 -15.59375 C 4.71875 -15.1875 4.390625 -14.625 4.390625 -13.90625 C 4.390625 -13.425781 4.507812 -13.015625 4.75 -12.671875 C 5 -12.328125 5.398438 -12 5.953125 -11.6875 C 6.515625 -11.375 7.578125 -10.925781 9.140625 -10.34375 C 11.304688 -9.5625 12.765625 -8.769531 13.515625 -7.96875 C 14.273438 -7.175781 14.65625 -6.175781 14.65625 -4.96875 Z M 14.65625 -4.96875 "/></g></g></g><g fill="#f5edff" fill-opacity="1"><g transform="translate(919.276516, 741.374983)"><g><path d="M 5.671875 0 L 2.921875 0 L 2.921875 -18.203125 L 5.671875 -18.203125 Z M 2.6875 -23.125 C 2.6875 -23.757812 2.84375 -24.222656 3.15625 -24.515625 C 3.46875 -24.804688 3.851562 -24.953125 4.3125 -24.953125 C 4.757812 -24.953125 5.140625 -24.800781 5.453125 -24.5 C 5.773438 -24.207031 5.9375 -23.75 5.9375 -23.125 C 5.9375 -22.507812 5.773438 -22.046875 5.453125 -21.734375 C 5.140625 -21.429688 4.757812 -21.28125 4.3125 -21.28125 C 3.851562 -21.28125 3.46875 -21.429688 3.15625 -21.734375 C 2.84375 -22.046875 2.6875 -22.507812 2.6875 -23.125 Z M 2.6875 -23.125 "/></g></g></g></svg>