<svg xmlns="http://www.w3.org/2000/svg" viewBox="0 0 500 500"><g id="freepik--background-complete--inject-470"><rect x="382.01" y="86.05" width="37.98" height="11.19" transform="translate(802.01 183.29) rotate(180)" style="fill:#ebebeb"></rect><path d="M403.2,71.94c6.33-.1,22.29-.36,28.41-.42l9.57,0h.46v.46l0,11.19v.5h-.5l-19-.07c-4.73,0-14.26-.14-19-.21H403v-.22l.22-11.19Zm0,0,.23,11.19-.23-.23c4.74-.06,14.26-.16,19-.2l19-.07-.5.5.05-11.19.45.46-9.41-.05c-6-.06-22.34-.31-28.57-.41Z" style="fill:#ebebeb"></path><path d="M360.82,71.94c6.33-.1,22.3-.36,28.41-.42l9.58,0h.45v.46l0,11.19v.5h-.5l-19-.07c-4.73,0-14.27-.14-19-.21h-.23v-.22l.22-11.19Zm0,0,.23,11.19-.23-.23c4.74-.06,14.26-.16,19-.2l19-.07-.5.5,0-11.19.46.46-9.42-.05c-6-.06-22.34-.31-28.57-.41Z" style="fill:#ebebeb"></path><path d="M58.82,71.94c6.32-.1,22.29-.36,28.4-.42l9.58,0h.46v.46l0,11.19v.5h-.5l-19-.07c-4.73,0-14.26-.14-19-.21h-.23v-.22l.23-11.19Zm0,0L59,83.13l-.22-.23c4.74-.06,14.25-.16,19-.2l19-.07-.5.5,0-11.19.46.46-9.42-.05c-6-.06-22.34-.31-28.56-.41Z" style="fill:#ebebeb"></path><rect x="80" y="390.6" width="37.98" height="11.19" transform="translate(197.99 792.38) rotate(180)" style="fill:#ebebeb"></rect><path d="M58.82,376.49c6.32-.11,22.29-.36,28.4-.42l9.58,0h.46v.46l0,11.19v.5h-.5l-19-.07c-4.73,0-14.26-.14-19-.21h-.23v-.22l.23-11.19Zm0,0L59,387.68l-.22-.23c4.74-.06,14.25-.16,19-.2l19-.07-.5.5,0-11.19.46.45-9.42,0c-6-.06-22.34-.31-28.56-.41Z" style="fill:#ebebeb"></path><path d="M149.51,156.48c6.33-.1,22.29-.35,28.41-.41l9.57,0H188v.46l0,11.19v.5h-.5l-19-.07c-4.73,0-14.26-.14-19-.2h-.23v-.22l.22-11.19Zm0,0,.22,11.19-.22-.22c4.74-.07,14.26-.17,19-.21l19-.07-.5.5,0-11.19.46.46-9.41,0c-6-.06-22.34-.32-28.57-.42Z" style="fill:#ebebeb"></path><path d="M403.2,390.58c6.33-.1,22.29-.35,28.41-.41l9.57,0h.46v.46l0,11.19v.51h-.5l-19-.07c-4.73,0-14.26-.14-19-.2H403v-.23l.22-11.19Zm0,0,.23,11.19-.23-.22c4.74-.07,14.26-.17,19-.21l19-.07-.5.5.05-11.19.45.46-9.41,0c-6-.06-22.34-.32-28.57-.42Z" style="fill:#ebebeb"></path><rect x="302.88" y="248.91" width="37.98" height="11.19" style="fill:#ebebeb"></rect><path d="M319.67,274.21c-6.33.1-22.29.36-28.41.42l-9.57,0h-.46v-.46l0-11.19v-.5h.5l19,.07c4.73,0,14.26.14,19,.21h.23V263l-.23,11.19Zm0,0L319.45,263l.22.23c-4.74.06-14.25.16-19,.2l-19,.07.5-.5,0,11.19-.46-.46,9.42.05c6,.06,22.33.31,28.56.41Z" style="fill:#ebebeb"></path><path d="M85.06,253.35,50.78,148a15.24,15.24,0,0,1,9.68-19,15,15,0,0,1,18.76,9.77L113.5,244.1A14.83,14.83,0,0,1,104.08,263,15.05,15.05,0,0,1,85.06,253.35Zm34.8,58.21a15,15,0,0,1-19-9.68l-1.7-5.22a15.21,15.21,0,0,1,9.68-19,15,15,0,0,1,18.75,9.76l1.7,5.22A14.81,14.81,0,0,1,119.86,311.56Z" style="fill:#ebebeb"></path><path d="M130.91,188.72l-3.33-80.63A11.09,11.09,0,0,1,138.1,96.65a10.92,10.92,0,0,1,11.23,10.54l3.33,80.63a10.77,10.77,0,0,1-10.32,11.42A10.94,10.94,0,0,1,130.91,188.72Zm13,47.65a11,11,0,0,1-11.43-10.53l-.16-4a11.08,11.08,0,0,1,10.52-11.43A10.91,10.91,0,0,1,154,221l.17,4A10.8,10.8,0,0,1,143.87,236.37Z" style="fill:#ebebeb"></path><rect x="372.07" y="202.14" width="72.89" height="88.42" style="fill:#ebebeb"></rect><rect x="380.4" y="210.21" width="56.23" height="72.28" style="fill:#fff"></rect><rect x="380.4" y="210.21" width="2.19" height="72.28" style="fill:#c7c7c7"></rect><rect x="444.96" y="202.14" width="2.19" height="88.42" style="fill:#c7c7c7"></rect><rect x="399.24" y="226.92" width="13.26" height="39.5" style="fill:#dbdbdb"></rect><path d="M429.31,240H393V219.68h36.35ZM394,239h34.35V220.68H394Z" style="fill:#ebebeb"></path><rect x="297.49" y="88.68" width="72.89" height="88.42" style="fill:#ebebeb"></rect><rect x="305.82" y="96.75" width="56.23" height="72.28" style="fill:#fff"></rect><rect x="305.82" y="96.75" width="2.19" height="72.28" style="fill:#c7c7c7"></rect><rect x="370.39" y="88.68" width="2.19" height="88.42" style="fill:#c7c7c7"></rect><rect x="328.5" y="115.43" width="11.36" height="28.72" style="fill:#ebebeb"></rect><path d="M352.32,153.19H320.8v-20.8h31.52Zm-30.52-1h29.52v-18.8H321.8Z" style="fill:#dbdbdb"></path></g><g id="freepik--Character--inject-470"><path d="M283.22,252.83c47.52,43.7,82.27,78.14,84.55,95,5.43,40-18.17,41.25-21.93,40.93-25.63-2.21-74.43-78.55-93.89-120.47C234.6,230.87,257.87,229.51,283.22,252.83Z" style="fill:#97071f"></path><path d="M293.42,282.62a27,27,0,0,0-2.3,7.43,30.21,30.21,0,0,0,6.42-14A27.08,27.08,0,0,0,293.42,282.62ZM351.31,337a27.22,27.22,0,0,0-2.29,7.43,27.7,27.7,0,0,0,4.12-6.59,27.15,27.15,0,0,0,2.29-7.42A27.45,27.45,0,0,0,351.31,337Zm-87.06-93.32a27.15,27.15,0,0,0-7.42-2.29,30,30,0,0,0,14,6.41A27.2,27.2,0,0,0,264.25,243.67Zm84,133.79a26.67,26.67,0,0,0-7.41-2.31,30.07,30.07,0,0,0,14,6.43A26.87,26.87,0,0,0,348.27,377.46Zm-32-28.73a27.73,27.73,0,0,0-3.61-6.87,27.29,27.29,0,0,0,1.73,7.57A27.59,27.59,0,0,0,318,356.3,26.93,26.93,0,0,0,316.27,348.73Zm9.22-36.62a27,27,0,0,0-6.87,3.62A27,27,0,0,0,326.2,314a27.66,27.66,0,0,0,6.87-3.63A27.28,27.28,0,0,0,325.49,312.11Z" style="opacity:0.1"></path><path d="M358.13,385.09a20.14,20.14,0,0,1-12.29,3.64c-25.63-2.21-74.43-78.56-93.88-120.47-7-15.07-7.39-24.29-3.71-28.39Z" style="opacity:0.1"></path><path d="M315.14,451.18l-190.55-.32c.48-3.92,32.23-180.67,78.32-221.39,15.83-14,46.11-3.6,49.91-.49C289.69,259.08,317.92,448.89,315.14,451.18Z" style="fill:#97071f"></path><path d="M208.12,307.23a26.64,26.64,0,0,0-2.29,7.43,30.06,30.06,0,0,0,6.41-14A27.39,27.39,0,0,0,208.12,307.23Zm-22.19,102.6a27.56,27.56,0,0,0-2.3,7.41,30.21,30.21,0,0,0,6.42-14A27.74,27.74,0,0,0,185.93,409.83Zm59.41-7a26.9,26.9,0,0,0-2.32,7.41,29.62,29.62,0,0,0,6.43-14A27.41,27.41,0,0,0,245.34,402.82Zm19-159.11h0l-.08,0a27.15,27.15,0,0,0-7.42-2.29,27.37,27.37,0,0,0,6.58,4.12c.82.36,1.64.7,2.48,1C265.37,245.54,264.86,244.61,264.34,243.71ZM276,321.53a27.19,27.19,0,0,0-7.41-2.29,26.89,26.89,0,0,0,6.57,4.12,27.89,27.89,0,0,0,7.42,2.31A27.14,27.14,0,0,0,276,321.53Zm9.62,102.81a27.16,27.16,0,0,0-7.42-2.3,26.76,26.76,0,0,0,6.58,4.12,27.07,27.07,0,0,0,7.41,2.3A27.51,27.51,0,0,0,285.6,424.34Zm-152.91-3.21c-.7-.31-1.41-.6-2.12-.87-.14.63-.27,1.25-.4,1.87l1.68.83a27.3,27.3,0,0,0,7.41,2.29A27.2,27.2,0,0,0,132.69,421.13Zm54.17-73.76a27,27,0,0,0-7.41-2.31,26.67,26.67,0,0,0,6.59,4.13,27.45,27.45,0,0,0,7.41,2.3A27.31,27.31,0,0,0,186.86,347.37ZM256.76,449a21,21,0,0,0,.25,2.11h1.15A22.68,22.68,0,0,0,256.76,449ZM213.19,256.24a27.66,27.66,0,0,0-3.63-6.87,27.65,27.65,0,0,0,1.73,7.57,27.32,27.32,0,0,0,3.63,6.87A26.93,26.93,0,0,0,213.19,256.24Zm26,84.47a27.57,27.57,0,0,0-3.61-6.87A30.19,30.19,0,0,0,241,348.28,27.3,27.3,0,0,0,239.21,340.71Zm-84.16,39.16a27.2,27.2,0,0,0-3.63-6.85,29.83,29.83,0,0,0,5.36,14.42A27.65,27.65,0,0,0,155.05,379.87Zm10.37,65.89a27.24,27.24,0,0,0-3.61-6.87,27.3,27.3,0,0,0,1.74,7.57,33.88,33.88,0,0,0,2,4.47h1.27A31.44,31.44,0,0,0,165.42,445.76Zm118.46-71a27.59,27.59,0,0,0-6.87,3.61A30,30,0,0,0,291.45,373,26.59,26.59,0,0,0,283.88,374.75ZM216.4,436.84a27.47,27.47,0,0,0-6.88,3.61A30.05,30.05,0,0,0,224,435.09,26.21,26.21,0,0,0,216.4,436.84ZM161.46,320.56a30.85,30.85,0,0,0-5.74,2.82h0c-.08.23-.15.47-.22.7a29.65,29.65,0,0,0,6.66-1.65,27.45,27.45,0,0,0,6.87-3.62A27.3,27.3,0,0,0,161.46,320.56Zm53.11,56.86A27.28,27.28,0,0,0,207.7,381a26.93,26.93,0,0,0,7.57-1.73,27.55,27.55,0,0,0,6.88-3.63A27.28,27.28,0,0,0,214.57,377.42Zm35.08-91.15a28.27,28.27,0,0,0-6.87,3.61,30,30,0,0,0,14.44-5.34A26.93,26.93,0,0,0,249.65,286.27Z" style="opacity:0.1"></path><path d="M244.53,262.08C233.23,261.9,219,241,215.15,226c-.26-1,3.54-10.23,7.63-21.62,2.46-6.92,5-14.68,6.86-21.94.37-1.49,42.7,22.56,42.7,22.56S264,219,260.91,231.69a16.13,16.13,0,0,0-.44,3.06c0,.14,0,.31-.06.51C259.9,241.14,255.45,262.24,244.53,262.08Z" style="fill:#f7a9a0"></path><path d="M232.39,183.29c-1,12.8-.85,44.36,23.29,51a28.31,28.31,0,0,0,4.71.93,1.7,1.7,0,0,0,.07-.52,18.68,18.68,0,0,1,.43-3c3.13-12.69,11.46-26.76,11.46-26.76S241.81,187.59,232.39,183.29Z" style="fill:#263238"></path><path d="M238.44,127.44c-9.73,14.42-15.42,63-7.25,76.67C243,224,269.46,233.65,288.13,217.8c18.09-15.36,24.39-78.74,14.6-91.93C288.32,106.45,252.82,106.14,238.44,127.44Z" style="fill:#f7a9a0"></path><path d="M274.8,172c0-.13-.29.11-.3.25-.5,3.33-1.62,7.06-4.81,7.62-.1,0-.12.19,0,.19C273.43,180.19,274.87,175.22,274.8,172Z" style="fill:#263238"></path><path d="M272.47,168c-5.26-1.36-7.6,9.25-2.73,10.51S276.87,169.13,272.47,168Z" style="fill:#263238"></path><path d="M292.82,175.68c.05-.12.22.21.19.35-.82,3.26-1.2,7.14,1.54,8.88.08.05,0,.21-.07.18C291,183.79,291.52,178.64,292.82,175.68Z" style="fill:#263238"></path><path d="M296.5,172.88c5.38.75,3.49,11.45-1.49,10.76S292,172.26,296.5,172.88Z" style="fill:#263238"></path><path d="M269.3,161.86a43.36,43.36,0,0,0,4.39-.78c1.69-.31,3.06-.39,4.33-1.64a2.3,2.3,0,0,0,.09-2.81c-1.37-1.69-3.53-1.81-5.57-1.51a8.34,8.34,0,0,0-5.34,2.78C265.73,159.5,267.3,162,269.3,161.86Z" style="fill:#263238"></path><path d="M301.86,168.9a41.1,41.1,0,0,1-4-2c-1.52-.8-2.81-1.27-3.66-2.84a2.29,2.29,0,0,1,.73-2.71c1.8-1.21,3.9-.7,5.77.18a8.32,8.32,0,0,1,4.3,4.22C306,167.68,303.73,169.64,301.86,168.9Z" style="fill:#263238"></path><path d="M267.89,197.94c4.53-.77,9.77.91,13.08,2.06.39,0,.89-.65,1-1v0l1.27-7c.82.66,5,3.75,5.24,2.43,1.66-11,3.51-23.16,2.85-34.42a.31.31,0,0,0-.62,0c-2,10.47-2.17,21.23-4,31.78-1.36-.88-3.57-2.45-4.88-2.7-.38,0-1,7.48-1.33,8.57,0,0-6.21-3.4-12.36-1.11C266.55,197.09,265.74,198.3,267.89,197.94Z" style="fill:#263238"></path><path d="M272.71,204.53c2-.25,6.51-7.14,3.41-8.28s-10.95-.66-14.65,3.55c-3.25,3.69,6.8,2.57,8.19,3.52C270.82,204.11,271.26,204.72,272.71,204.53Z" style="fill:#263238"></path><path d="M269.67,203.33a7.77,7.77,0,0,0,.66.47c.61-2.4-.58-5.65-5-6.71a10.7,10.7,0,0,0-3.89,2.69C258.24,203.48,268.28,202.38,269.67,203.33Z" style="fill:#ff9abb"></path><path d="M256.3,204.35c.62.93,1.18,2.14,2.35,2.49a8.79,8.79,0,0,0,3.68-.09.11.11,0,0,1,.1.19,4.5,4.5,0,0,1-4.51.92c-1.42-.57-1.89-2-2-3.42C255.94,204.24,256.21,204.22,256.3,204.35Z" style="fill:#263238"></path><path d="M229.42,165.64c11.51,3.69,21.05-8.77,21.06-20.68,0,0,30.12,11.77,37.75-12.87,0,0,5,13.89,19.08,17.73l-.37,8.53c3.42-.14,9-8.39,3-17.42,0,0,2.51-12.6-4.84-22.33a17.52,17.52,0,0,0-17.68-7,26.5,26.5,0,0,0-17.64-9.23c-11.84-1.35-19.12,8-19.12,8s-16.15-.84-21.46,9.47a23.39,23.39,0,0,0-1.46,19.05s-4.92,3.36-5.25,13.19C222.26,158.31,226,164.53,229.42,165.64Z" style="fill:#263238"></path><path d="M288.08,129.71a29.6,29.6,0,0,1-1.43,6.12,25.84,25.84,0,0,1-2.57,5.63,16.26,16.26,0,0,1-9.41,7.2c-3.89,1.33-8.13.65-12.19.07-2-.56-4.06-1-6-1.65s-3.94-1.45-6-2.12c1.87,1,3.79,1.86,5.7,2.8s4,1.38,6.05,2.08c4.15.84,8.57,1.56,12.85.25a17,17,0,0,0,10-8.05A25.54,25.54,0,0,0,288.08,129.71Z" style="fill:#263238"></path><path d="M250.64,110.28a29.64,29.64,0,0,0-12.09-.33,17.83,17.83,0,0,0-10.69,6,19.65,19.65,0,0,0-2.91,5.5,18,18,0,0,0-1.17,6.07,16.54,16.54,0,0,0,3.94,11.32,18.21,18.21,0,0,1-2.8-11.27,20.33,20.33,0,0,1,4.1-10.69,15.17,15.17,0,0,1,4.34-3.7,22.85,22.85,0,0,1,5.43-2.08A37.87,37.87,0,0,1,250.64,110.28Z" style="fill:#263238"></path><path d="M287.4,111.55A30.38,30.38,0,0,1,297,112,17.16,17.16,0,0,1,310.25,124a32.65,32.65,0,0,1,1.61,9.47,24.06,24.06,0,0,0-.52-9.8,17.62,17.62,0,0,0-5.06-8.61,17.42,17.42,0,0,0-9.09-4.11A22.73,22.73,0,0,0,287.4,111.55Z" style="fill:#263238"></path><path d="M300.59,148.09a33.3,33.3,0,0,1-8.2-7.4,20.17,20.17,0,0,1-2.71-4.7,24.7,24.7,0,0,1-1.46-5.37,13.79,13.79,0,0,0,.38,5.74,15,15,0,0,0,2.61,5.23,18.63,18.63,0,0,0,4.22,4A17.37,17.37,0,0,0,300.59,148.09Z" style="fill:#263238"></path><path d="M238.33,169.41s-6.19-17.93-14-16.13-6.15,25.7,1,30.94A8.42,8.42,0,0,0,237.35,183Z" style="fill:#f7a9a0"></path><path d="M225,160.12c-.13-.05-.2.12-.11.2,4.94,3.85,6.41,9.87,6.94,15.82-1.07-2.54-3-4.31-6.34-3.12-.18.06-.1.33.06.34a5.18,5.18,0,0,1,5,3.3,24.25,24.25,0,0,1,1.36,5.18c.12.57,1.1.56,1.07-.07v-.14C235.08,174.55,232.39,163,225,160.12Z" style="fill:#263238"></path><g style="opacity:0.2"><path d="M258.42,183.55a.67.67,0,0,1-1.27-.42.68.68,0,0,1,.84-.42A.67.67,0,0,1,258.42,183.55Z"></path><path d="M271.86,187.31a.67.67,0,0,1-1.27-.42.66.66,0,0,1,.84-.42A.67.67,0,0,1,271.86,187.31Z"></path><path d="M265.66,190.41a.67.67,0,0,1-1.27-.42.67.67,0,0,1,1.27.42Z"></path><path d="M260.5,178.44a.67.67,0,0,1-.84.43.67.67,0,1,1,.84-.43Z"></path><path d="M265.57,184.07a.66.66,0,0,1-.84.42.66.66,0,1,1,.42-1.26A.68.68,0,0,1,265.57,184.07Z"></path><path d="M301.15,185.69a.67.67,0,1,1-.43-.84A.66.66,0,0,1,301.15,185.69Z"></path><path d="M295,187.65a.66.66,0,0,1-.84.42.67.67,0,0,1-.42-.84.66.66,0,1,1,1.26.42Z"></path><path d="M294.91,192.23a.67.67,0,0,1-1.27-.42.68.68,0,0,1,.84-.42A.67.67,0,0,1,294.91,192.23Z"></path><path d="M300.17,190.76a.66.66,0,0,1-.84.42.67.67,0,0,1-.43-.84.67.67,0,0,1,1.27.42Z"></path></g><path d="M211.62,227.68S216,207,218.43,206.63s12.42,19.31,21.89,23.64,20.35,3,21.92,3.35-3.88,18.57-5.83,22.54c-2.3,4.67-6.36,8.95-13.64,7.29C229.3,260.37,212.51,237.47,211.62,227.68Z" style="fill:#97071f"></path><path d="M219.86,212.17a45.8,45.8,0,0,1-5.15,16,45.6,45.6,0,0,1,5.15-16Z" style="fill:#263238"></path><path d="M259.82,235.27a46,46,0,0,1-4.15,16.24,45.55,45.55,0,0,1,4.15-16.24Z" style="fill:#263238"></path><path d="M254,237.89a80.82,80.82,0,0,1-5.52,21.57A80.35,80.35,0,0,1,254,237.89Z" style="fill:#263238"></path><path d="M246.2,236.86a80.45,80.45,0,0,1-5.52,21.57,80.73,80.73,0,0,1,5.52-21.57Z" style="fill:#263238"></path><path d="M238,232.51a80.81,80.81,0,0,1-5.51,21.57A80.33,80.33,0,0,1,238,232.51Z" style="fill:#263238"></path><path d="M231.21,227.18a72.69,72.69,0,0,1-5.24,20.5,72.69,72.69,0,0,1,5.24-20.5Z" style="fill:#263238"></path><path d="M225.07,220.08a57.58,57.58,0,0,1-5.37,18,57.24,57.24,0,0,1,5.37-18Z" style="fill:#263238"></path><path d="M150.39,404.05c18-7.73,57.25-72.84,75.08-139.94,2.76-10.38-55.7-38.6-60.69-28.26-6.29,13-42,85.63-43.06,89.62C112.46,359.19,138.18,409.29,150.39,404.05Z" style="fill:#f7a9a0"></path><path d="M170.65,207.18c9.36-19.53,14.75-23.1,13.9-43.78-.56-13.56,7.86-19.74,14.94-7.52,11.58,20,4.79,47.71-.33,56.64Z" style="fill:#f7a9a0"></path><path d="M159.25,253.74s-.71-15.16,7.21-37c5.47-15.07,21-46.53,68.07-55.31,11.16-2.09,28.54,2.85,11.55,12.88-12.06,7.12-21.87,8-28.13,13.4,0,0,21.36,8.91,23,20.17.73,5,2.43,18.82,2.22,29.73a43.21,43.21,0,0,1-5.53.92s2.35,14.17-12.18,25.53Z" style="fill:#f7a9a0"></path><path d="M174,203.24c7.35-4.06,23.09-12.42,38.33-14.77,16.94-2.62,50.26-3.09,52.07,9.43,1.32,9.18-11.39,10.48-11.39,10.48s13.82,2.71,13.2,11.26c-.57,7.8-10.46,8.21-10.46,8.21s8.1,3.09,6.11,10.49c-2.4,8.91-19,1-29.19,7.91C230.35,247.8,174,203.24,174,203.24Z" style="fill:#f7a9a0"></path><path d="M212.09,206.82c7.55-2.68,26.25-4.39,40.68,1.28.33.12.41.44.09.39A168.09,168.09,0,0,0,212.12,207C212,207,212,206.85,212.09,206.82Z" style="fill:#263238"></path><path d="M215.23,223.84c6.75-1.65,26.1-2.55,40.53,3.7.33.14.38.46.06.39A180.67,180.67,0,0,0,215.25,224C215.15,224,215.14,223.86,215.23,223.84Z" style="fill:#263238"></path><path d="M246.41,189.07c-4.32-.7-23.56-1.7-28.52-1.18-.12,0-.16-.17,0-.19,7.31-1.69,23.58-1.41,28.37-.68s10.64,1.85,14.67,4.52c6.09,4,4.57,8.83,3.87,10.52a9.43,9.43,0,0,1-4.28,4.62,19.06,19.06,0,0,1-7.52,1.77c-.12,0-.16-.18,0-.19,3.79-.52,8.48-2.46,10.24-6a6.65,6.65,0,0,0,.46-5.11c-.71-2-2.5-3.26-4.26-4.23C255.4,190.69,250.85,189.78,246.41,189.07Z" style="fill:#263238"></path><path d="M253,208.45c5.06.15,10.59,2.12,13.21,6.87a8.14,8.14,0,0,1-1.56,9.51,7.29,7.29,0,0,1-5.18,2.32,7.32,7.32,0,0,0,3-1.87c2.5-2.27,3.56-6.07,1.92-9.05-2.22-4.14-7.1-6.17-11.43-7.78Z" style="fill:#263238"></path><path d="M217.86,187.7c5.37-4.92,12.81-6.31,19.29-9.15,4.86-2.11,22.25-9.6,12.43-15.5-9.52-4-26.59.84-36,4.52A74.44,74.44,0,0,1,234,160.92c5.31-.91,11.13-1.41,16.25.81,2.8,1.16,4.82,4.68,3.23,7.54-1.33,2.55-3.77,4.25-6.09,5.71-6.21,3.71-13.13,6-20,8a33.42,33.42,0,0,0-9.5,4.74Z" style="fill:#263238"></path><path d="M212,305c3.79-13.39,8.4-27.91,12.74-41.16l.07-.21a40.58,40.58,0,0,0,4.5-4.21c4-4.32,7.37-9.59,7.76-15.57l0-.41a66.76,66.76,0,0,1,17.9-.62,81.62,81.62,0,0,0-17.32,1.54l.4-.48c-.14,6.3-3.57,12-7.7,16.52a41,41,0,0,1-4.47,4.26l.25-.36-3.4,10.22c-3.32,9.81-7.11,20.78-10.76,30.48Z" style="fill:#263238"></path><path d="M155.86,236.47l63.3,77.28s-51.6,84.09-68.79,94.25c-19.92,11.77-44.53-41-31-85.26Z" style="fill:#97071f"></path><path d="M210.41,303.06a36,36,0,0,0-2.29,4.17,26.64,26.64,0,0,0-2.29,7.43,27.94,27.94,0,0,0,4.12-6.59,36.09,36.09,0,0,0,1.45-3.79Zm-86,40.93a27.34,27.34,0,0,0-2.3,7.43,27.19,27.19,0,0,0,4.12-6.59,26.86,26.86,0,0,0,2.3-7.41A27.71,27.71,0,0,0,124.37,344Zm42.42-77.34a27,27,0,0,0-2.3,7.42,30.18,30.18,0,0,0,6.42-14A27,27,0,0,0,166.79,266.65Zm20.07,80.72a27,27,0,0,0-7.41-2.31,26.67,26.67,0,0,0,6.59,4.13,27.45,27.45,0,0,0,7.41,2.3A27.31,27.31,0,0,0,186.86,347.37Zm-54-56.62-.69,1.63a23.36,23.36,0,0,0,4.87,1.26A23.13,23.13,0,0,0,132.89,290.75Zm22.16,89.12a27.2,27.2,0,0,0-3.63-6.85,29.83,29.83,0,0,0,5.36,14.42A27.65,27.65,0,0,0,155.05,379.87Zm6.41-59.31a28.27,28.27,0,0,0-6.87,3.61A29.92,29.92,0,0,0,169,318.82,27.3,27.3,0,0,0,161.46,320.56Z" style="opacity:0.1"></path><path d="M200.87,322.36c-24.94-26-42.76-52.31-47-57.45-.2-.25.21-.54.4-.29,3.93,5.27,28.78,33.24,47.07,57.42C201.52,322.32,201.11,322.61,200.87,322.36Z" style="fill:#263238"></path><path d="M212.11,303.84a.46.46,0,0,0-.72.58c1.72,2.3,5.91,8.25,6,8.81.07.38-8.6,14.1-11.42,18.76q-8.41,13.86-17.38,27.38T170,386.24c-2.93,4.06-5.8,8.23-9,12.06-2.9,3.42-6.29,6.62-10.53,8.28-7.53,3-16.67-.52-21.14-7.06a16.81,16.81,0,0,1-1.47-2.66c0-.08-.19,0-.16.05,2.32,8.09,10.79,13.28,19,12.47,9.92-1,16.36-10.08,21.75-17.45q10-13.64,19.41-27.68t18.3-28.57c2.93-4.79,13.37-22.52,13.43-22.93S213.07,305,212.11,303.84Z" style="fill:#263238"></path><path d="M354.42,382.22c-19.24,3.61-64.82-4.57-127.1-25.51-10.18-3.43,0-68.44,11.2-65.95,14.12,3.14,93.89,23.66,97.71,25.27C368.43,329.65,367.21,379.82,354.42,382.22Z" style="fill:#f7a9a0"></path><path d="M270.42,306.19c-3.5-3.5-20.83-29.56-28.3-35.11s-39.44-14.56-47.43-14.82-35.82,9.35-40.67,14.6c-3.89,4.21,3.63,13.41,19.66,11.27,15-2,18.46-3.22,22.83-2.75s17.82,10.26,17,16.69c-.49,3.78-3.62,12.17-10.46,11.31s-15.85-1.48-24.44-5-22.61.67-21.39,8.67c.87,5.72,9.75,8,21.84,13.5,7.53,3.45,5.93,3.78,16.93,15.32,11.71,12.29,36.24,18.6,36.24,18.6Z" style="fill:#f7a9a0"></path><path d="M240.64,268.24c-9.43-6.34-30.67-15.91-47.22-15.16-11.19.51-37.15,31-33.43,36.87s9.36,3.44,17.26-1.2c2.88-1.69,16.43-14.48,20.64-12.31,6.06,3.13,18.3,17.5,18.3,17.5Z" style="fill:#f7a9a0"></path><path d="M159.73,287.13c1.13-8.53,8.51-16,16.18-22.78.11-.11.29.07.17.18-2,1.71-13.55,14.74-16.2,22.66C159.85,287.28,159.72,287.21,159.73,287.13Z" style="fill:#263238"></path><path d="M240.64,268.24c-9.43-6.34-30.67-15.91-47.22-15.16-11.19.51-28.3,32.46-24.58,38.35s12,2.84,19.61-4.18c2.45-2.27,9.16-13.33,13.37-11.15,6.06,3.12,20.91,11,20.91,11Z" style="fill:#f7a9a0"></path><path d="M181.7,292.24c3.38-1.84,6.3-5.6,8.57-8.66,2-2.66,3.91-5.85,6.88-7.49a6.94,6.94,0,0,1,4.3-.95,13.8,13.8,0,0,1,4.32,1.82c1.58.85,3.11,1.79,4.63,2.75s2,1.32,3.54,2.32c.63.41.29.79-.41.36a47.81,47.81,0,0,0-8-4,15.93,15.93,0,0,0-4.42-1.5,5.94,5.94,0,0,0-4.35,1.57c-2.54,2.16-4.26,5.19-6.6,7.56s-5.19,5.32-8.34,6.44C181.64,292.55,181.56,292.31,181.7,292.24Z" style="fill:#263238"></path><path d="M167.45,284.3c.66-4,2.74-7.85,4.79-11.27a80.13,80.13,0,0,1,7.39-10.26c1.39-1.66,2.82-3.3,4.3-4.88s2.77-3.28,4.64-4.21c5.12-2.55,11.82-.67,14.36-.3.15,0,.15.27,0,.25-2.08-.27-8.83-1.25-12.07.19a15.21,15.21,0,0,0-4.95,4.09c-1.25,1.41-2.5,2.81-3.71,4.24-4.94,5.83-9.78,12.41-12.33,19.68-1.42,4-1.71,8.64,1.63,11.79.12.11,0,.28-.17.21C168,292.11,166.88,287.75,167.45,284.3Z" style="fill:#263238"></path><path d="M248.92,277.73c-3.49-3.7-12.65-20.53-17.82-25s-26.88-18.59-34-15.48c-9,3.91,5.88,17.65,12.88,23s9.79,17.35,9.79,17.35Z" style="fill:#f7a9a0"></path><path d="M199.66,251c2.4,1.65,4.68,3.59,6.9,5.47a57.05,57.05,0,0,1,6.27,5.55c1.83,2.08,5.23,9.59,5.54,10.91,1.44,6.1,3.59,19.2,7.3,31.44a60.85,60.85,0,0,0,6,13.18c.64,1,.74,2-.35.54-10.24-13.57-13.46-40.5-14.68-44.74-.77-2.68-3.48-8.29-5.32-10.38-3.67-4.19-8.19-7.55-11.9-11.7C199.24,251.1,199.49,250.88,199.66,251Z" style="fill:#263238"></path><path d="M208,258.76c-5-4-13.44-10.4-14.39-17.2a4.87,4.87,0,0,1,2.2-4.44c2.92-1.79,6.36-.94,9.34-.05,5.8,1.93,10.85,5.24,16.18,8.1,5.16,3.17,10.1,6.79,13.51,11.86-3.82-4.59-8.89-8-14.06-10.85-6.72-3.14-12.93-7.66-20.3-8.61-2.61-.34-5.75,1-5.56,3.92.49,4.31,3.88,7.8,6.68,11,2,2.21,4.21,4.24,6.4,6.29Z" style="fill:#263238"></path><path d="M182.61,258.5A53.09,53.09,0,0,1,171,262.28a27.81,27.81,0,0,1,11.61-3.78Z" style="fill:#263238"></path><path d="M195.42,279.37c7.23-.15,12.85,5.82,16.94,11.16a10.14,10.14,0,0,1,2,5.11,14.82,14.82,0,0,1-4.47,9.58c-1.26,1.17-2.9,2.28-4.68,2.16a6.66,6.66,0,0,0,4.14-2.66c1.93-2.48,3.62-5.89,3.6-9a8.9,8.9,0,0,0-1.82-4.34c-4-5.19-8.87-11-15.7-12Z" style="fill:#263238"></path><path d="M262.84,290.43,251,374.82s87.4,21.19,106,14c21.58-8.35,21.62-59.52-21.5-76.33Z" style="fill:#97071f"></path><path d="M330,310.79h0a35.68,35.68,0,0,0-4.49,1.32,27,27,0,0,0-6.87,3.62A27,27,0,0,0,326.2,314a30.74,30.74,0,0,0,5.5-2.69Zm-46.11,64a27.59,27.59,0,0,0-6.87,3.61A30,30,0,0,0,291.45,373,26.59,26.59,0,0,0,283.88,374.75Zm32.39-26a27.73,27.73,0,0,0-3.61-6.87,27.29,27.29,0,0,0,1.73,7.57A27.59,27.59,0,0,0,318,356.3,26.93,26.93,0,0,0,316.27,348.73Zm32,28.73a26.67,26.67,0,0,0-7.41-2.31,30.07,30.07,0,0,0,14,6.43A26.87,26.87,0,0,0,348.27,377.46ZM276,321.53a27.19,27.19,0,0,0-7.41-2.29,26.89,26.89,0,0,0,6.57,4.12,27.89,27.89,0,0,0,7.42,2.31A27.14,27.14,0,0,0,276,321.53ZM351.31,337a27.22,27.22,0,0,0-2.29,7.43,27.7,27.7,0,0,0,4.12-6.59,27.15,27.15,0,0,0,2.29-7.42A27.45,27.45,0,0,0,351.31,337Z" style="opacity:0.1"></path><path d="M281.8,301.68c-1.34,36-7.83,67.1-8.56,73.75,0,.31-.54.22-.49-.09,1.06-6.49,3.86-43.8,8.51-73.76C281.32,301.23,281.81,301.33,281.8,301.68Z" style="fill:#263238"></path><path d="M335,389.73c-11-1.72-22-3.38-33-5.21s-21.86-4-32.73-6.28c-6-1.27-11.51-2.85-17.47-4.27,0-3.24.47-5.08.59-9,0-.49-1.14-.57-1.18-.08-.33,4.25-1.82,10.48-1.54,10.56,10.76,2.86,22.45,5.15,33.37,7.31s22,4,33.13,5.39c6.24.79,12.49,1.35,18.76,1.74A.08.08,0,0,0,335,389.73Z" style="fill:#263238"></path><path d="M262.27,294.54c.13-1.45.24-2.91.4-4.37C269.81,292,276.92,294,284,296c17.48,5.17,35,10.11,52.16,16.39a40.47,40.47,0,0,1,9.64,5.22,45.4,45.4,0,0,0-10-4.33c-17.46-5.15-35-10-52.33-15.67-6.94-2.24-13.85-4.54-20.74-7l.26-.17c-.23,1.37-.51,2.73-.77,4.09Z" style="fill:#263238"></path></g><g id="freepik--Lines--inject-470"><polygon points="222.66 110.77 192.28 67.17 204.28 61.54 222.66 110.77" style="fill:#455a64"></polygon><polygon points="209.97 121.75 178.56 111.64 182.59 102.87 209.97 121.75" style="fill:#455a64"></polygon><polygon points="230.49 106.96 232.08 74.34 241.99 74.82 230.49 106.96" style="fill:#455a64"></polygon></g><g id="freepik--Plant--inject-470"><path d="M80.88,354c-5.67,0-17.14-4.47-15.21-8.21s7.84,1.06,8.09,1.21c-.17-.28-4-7.76-.59-9.05s6.86,2.3,7.71,6.45c.86-4.15,4.23-7.79,7.72-6.45s-.42,8.77-.59,9.05c.25-.15,6.19-4.88,8.08-1.21S86.55,354,80.88,354Z" style="fill:#455a64"></path><path d="M109.51,384.58a70.31,70.31,0,0,1-1.44,9.3c-1.35,6.09-3.56,12-6.73,16a58.68,58.68,0,0,1-20.52,3.86,58.68,58.68,0,0,1-20.52-3.86c-6.76-8.45-9.17-25.83-8.21-34.77,1.75-16.14,11.39-22.31,19.76-24.52h0a35.55,35.55,0,0,1,9-1.15c8.21,0,26.28,3,28.74,25.68A50.49,50.49,0,0,1,109.51,384.58Z" style="fill:#97071f"></path><path d="M81.42,349.39c.23,5.36.36,10.73.46,16.09S82,376.2,82,381.57s-.06,10.72-.21,16.09a130.34,130.34,0,0,1-1.13,16l.21-2,.11-2c.09-1.34.09-2.68.13-4q.1-4,.12-8c0-5.36.07-10.72,0-16.08l0-16.09C81.34,360.12,81.35,354.76,81.42,349.39Z" style="fill:#fff"></path><path d="M77.93,349.5A67.59,67.59,0,0,0,76,357.29c-.53,2.62-.92,5.26-1.26,7.91a155.39,155.39,0,0,0-1.1,16l0,4c0,1.34,0,2.67.07,4,0,2.67.24,5.34.36,8,0,1.33.19,2.66.3,4l.36,4,.91,8c-.44-2.64-.87-5.28-1.26-7.94l-.46-4c-.15-1.33-.32-2.66-.4-4-.22-2.67-.42-5.35-.47-8,0-1.34-.12-2.68-.1-4v-4a138.86,138.86,0,0,1,1.27-16A78.9,78.9,0,0,1,77.93,349.5Z" style="fill:#fff"></path><path d="M73.29,350.17a33.26,33.26,0,0,0-4.07,7.08c-.27.63-.56,1.24-.8,1.88l-.69,1.92-.34,1c-.11.32-.19.65-.28,1l-.55,2a63.32,63.32,0,0,0-1.85,16.17l.09,4.08.39,4.07.2,2c.1.67.23,1.34.35,2l.69,4a16.94,16.94,0,0,0,.43,2l.48,2,1,4,2.42,7.84c-.94-2.57-1.84-5.15-2.76-7.74l-1.07-4-.54-2a19.4,19.4,0,0,1-.48-2l-.76-4.05c-.12-.67-.26-1.35-.36-2l-.22-2-.44-4.1L64,381.14A61.17,61.17,0,0,1,66,364.82l.6-2c.1-.33.19-.66.3-1l.37-1L68,359c.26-.64.57-1.25.86-1.88A31.12,31.12,0,0,1,73.29,350.17Z" style="fill:#fff"></path><path d="M69.87,351.1a29.56,29.56,0,0,0-5.55,6.16,36,36,0,0,0-3.95,7.26,42.31,42.31,0,0,0-3.12,16.14c0,1.38.06,2.76.11,4.14s.22,2.75.46,4.12l.31,2.05.42,2c.13.68.28,1.35.46,2l.51,2c.35,1.34.78,2.66,1.18,4l1.39,3.92,1.55,3.86,1.69,3.81A81.37,81.37,0,0,1,59,397.19c-.36-1.35-.79-2.69-1-4.06l-.44-2.05L57.17,389c-.26-1.37-.34-2.77-.5-4.16s-.19-2.79-.14-4.19a41.76,41.76,0,0,1,3.33-16.36A36,36,0,0,1,64,357.05a33,33,0,0,1,2.7-3.19A22.74,22.74,0,0,1,69.87,351.1Z" style="fill:#fff"></path><path d="M84.69,349.54a78.9,78.9,0,0,1,3.73,15.63,138.68,138.68,0,0,1,1.27,16l0,4c0,1.34-.08,2.68-.11,4,0,2.68-.25,5.35-.47,8-.08,1.34-.25,2.67-.4,4l-.46,4c-.39,2.65-.82,5.3-1.26,7.94l.91-8,.36-4c.11-1.33.25-2.66.3-4,.12-2.68.34-5.34.36-8,0-1.34.1-2.68.07-4l0-4a152.44,152.44,0,0,0-1.1-16c-.34-2.65-.73-5.29-1.26-7.91A67.08,67.08,0,0,0,84.69,349.54Z" style="fill:#fff"></path><path d="M89.34,350.21a31.21,31.21,0,0,1,4.38,6.93c.29.62.6,1.24.86,1.87l.74,1.93.37,1c.11.33.2.66.31,1l.59,2a61.17,61.17,0,0,1,2,16.32l-.12,4.12-.44,4.1-.22,2.05c-.1.68-.24,1.35-.36,2l-.76,4a20.23,20.23,0,0,1-.48,2l-.54,2-1.07,4c-.92,2.59-1.82,5.17-2.76,7.74l2.42-7.84,1-4,.48-2a16.94,16.94,0,0,0,.43-2l.69-4c.12-.67.25-1.34.35-2l.2-2,.4-4.07.08-4.08A63.45,63.45,0,0,0,96.06,365l-.55-2c-.09-.33-.17-.66-.27-1l-.35-1-.68-1.92c-.25-.64-.54-1.25-.81-1.88A32.73,32.73,0,0,0,89.34,350.21Z" style="fill:#fff"></path><path d="M92.75,351.13a22.81,22.81,0,0,1,3.13,2.77,31.61,31.61,0,0,1,2.7,3.19,36.57,36.57,0,0,1,4.19,7.25,41.92,41.92,0,0,1,3.32,16.35c0,1.4-.07,2.8-.13,4.2s-.25,2.79-.5,4.16l-.34,2.07-.44,2.05c-.25,1.37-.68,2.7-1,4.05a81.46,81.46,0,0,1-6.35,15.43l1.7-3.81,1.54-3.87,1.4-3.91c.39-1.33.82-2.65,1.18-4l.5-2c.18-.67.33-1.35.46-2l.42-2,.31-2.05c.25-1.36.31-2.74.47-4.11s.15-2.76.1-4.14a42.09,42.09,0,0,0-3.12-16.14,36.31,36.31,0,0,0-4-7.27A30.08,30.08,0,0,0,92.75,351.13Z" style="fill:#fff"></path><path d="M79.5,368.56a35.19,35.19,0,0,1,2.37,3.58h-.43c.41-.72.83-1.44,1.27-2.14.22-.35.45-.7.68-1s.47-.68.73-1c-.15.39-.33.76-.5,1.14s-.36.75-.55,1.12c-.38.73-.78,1.46-1.2,2.18l-.22.37-.21-.37A37.14,37.14,0,0,1,79.5,368.56Z" style="fill:#fff"></path><path d="M81.48,366.7a15.59,15.59,0,0,1,.18,5.56,15,15,0,0,1-.18-5.56Z" style="fill:#fff"></path><path d="M98.08,349.56a36.16,36.16,0,0,1,0,4.29l-.36-.23c.73-.39,1.47-.75,2.23-1.1.37-.18.75-.35,1.13-.51s.77-.32,1.17-.45c-.34.24-.7.46-1.05.68l-1.06.64c-.73.41-1.45.81-2.19,1.18l-.39.2,0-.43A38.42,38.42,0,0,1,98.08,349.56Z" style="fill:#fff"></path><path d="M100.75,349.08a14.2,14.2,0,0,1-1.22,2.51,13.89,13.89,0,0,1-1.66,2.25,15.27,15.27,0,0,1,2.88-4.76Z" style="fill:#fff"></path><path d="M93.63,362.39a36.21,36.21,0,0,1,1.94,3.83l-.42-.05c.48-.67,1-1.33,1.5-2,.26-.33.53-.65.8-1s.55-.63.84-.92c-.2.37-.42.72-.63,1.07s-.45.71-.68,1.05c-.46.69-.94,1.36-1.43,2l-.26.35-.17-.4A36.57,36.57,0,0,1,93.63,362.39Z" style="fill:#fff"></path><path d="M95.81,360.78a13.7,13.7,0,0,1,0,2.79,14.54,14.54,0,0,1-.48,2.75,13.71,13.71,0,0,1,0-2.79A13.56,13.56,0,0,1,95.81,360.78Z" style="fill:#fff"></path><path d="M85.57,404.77a35.19,35.19,0,0,1,2.37,3.58h-.43c.4-.72.83-1.44,1.27-2.14.22-.35.45-.7.68-1s.47-.68.73-1c-.15.38-.33.76-.5,1.14s-.36.75-.55,1.12c-.38.73-.78,1.46-1.2,2.17l-.22.38-.21-.37A38.18,38.18,0,0,1,85.57,404.77Z" style="fill:#fff"></path><path d="M87.55,402.91a14.56,14.56,0,0,1,.34,2.77,13.76,13.76,0,0,1-.16,2.79,15,15,0,0,1-.18-5.56Z" style="fill:#fff"></path><path d="M66.7,355.89A36.68,36.68,0,0,1,67.94,360l-.42-.13c.6-.57,1.21-1.13,1.84-1.68l1-.8c.33-.25.65-.52,1-.76-.26.33-.54.64-.81.95s-.56.61-.85.91q-.87.9-1.77,1.74l-.32.3-.1-.42A37.25,37.25,0,0,1,66.7,355.89Z" style="fill:#fff"></path><path d="M69.13,354.68a13.31,13.31,0,0,1-.48,2.75,12.7,12.7,0,0,1-1,2.62,14.14,14.14,0,0,1,.48-2.75A13.3,13.3,0,0,1,69.13,354.68Z" style="fill:#fff"></path><path d="M110.78,371.33a37.91,37.91,0,0,1-.46,4.27l-.33-.27q1.16-.45,2.34-.84c.39-.13.79-.26,1.19-.37s.8-.23,1.21-.32c-.37.2-.75.37-1.12.56s-.75.35-1.13.51c-.77.33-1.54.64-2.31.92l-.41.15.07-.42A35.72,35.72,0,0,1,110.78,371.33Z" style="fill:#fff"></path><path d="M113.48,371.16a14,14,0,0,1-1.5,2.35,13.63,13.63,0,0,1-1.9,2.05,13.68,13.68,0,0,1,1.5-2.36A13.52,13.52,0,0,1,113.48,371.16Z" style="fill:#fff"></path><path d="M71.34,387.11a36.82,36.82,0,0,1,2.4,3.55h-.43c.4-.73.82-1.45,1.25-2.15.22-.36.44-.71.67-1s.46-.69.71-1c-.14.4-.32.77-.49,1.15s-.35.76-.53,1.13q-.56,1.11-1.17,2.19l-.22.38-.21-.37A36.18,36.18,0,0,1,71.34,387.11Z" style="fill:#fff"></path><path d="M73.29,385.23a15.6,15.6,0,0,1,.24,5.56,15.6,15.6,0,0,1-.24-5.56Z" style="fill:#fff"></path><path d="M56.52,396.6A33,33,0,0,1,60.08,399l-.4.17c.1-.83.22-1.65.35-2.47.07-.4.15-.81.23-1.22s.17-.81.28-1.22c0,.42,0,.84,0,1.25s-.05.83-.08,1.25c-.07.82-.15,1.65-.26,2.47l-.06.43-.34-.27A37.38,37.38,0,0,1,56.52,396.6Z" style="fill:#fff"></path><path d="M57.63,394.12A14.31,14.31,0,0,1,59,396.55a13.31,13.31,0,0,1,.92,2.64,15.45,15.45,0,0,1-2.3-5.07Z" style="fill:#fff"></path><path d="M52.84,358.94a36.3,36.3,0,0,1,3.95,1.68l-.36.24c-.06-.83-.1-1.65-.12-2.48,0-.42,0-.83,0-1.25s0-.83,0-1.24c.09.4.15.82.22,1.23s.11.82.15,1.23c.09.83.16,1.65.21,2.48l0,.43-.39-.19A37.31,37.31,0,0,1,52.84,358.94Z" style="fill:#fff"></path><path d="M53.46,356.31a15.26,15.26,0,0,1,3.22,4.53,13.45,13.45,0,0,1-1.81-2.12A14.08,14.08,0,0,1,53.46,356.31Z" style="fill:#fff"></path><path d="M103.42,386.16a37.08,37.08,0,0,1,2,3.78l-.43,0c.47-.68,1-1.35,1.46-2l.78-1c.27-.31.53-.64.82-.94-.19.37-.4.73-.61,1.09s-.43.71-.65,1.06c-.45.7-.91,1.39-1.39,2.06l-.26.35-.17-.39A35.15,35.15,0,0,1,103.42,386.16Z" style="fill:#fff"></path><path d="M105.56,384.49a15.3,15.3,0,0,1-.35,5.56,15.3,15.3,0,0,1,.35-5.56Z" style="fill:#fff"></path><polygon points="56.71 410.24 105.44 410.24 100.53 450.98 61.61 450.98 56.71 410.24" style="fill:#455a64"></polygon><polygon points="56.71 410.24 57.81 419.43 104.6 417.18 105.44 410.24 56.71 410.24" style="fill:#263238"></polygon><rect x="53.64" y="405.09" width="54.86" height="7.29" style="fill:#455a64"></rect></g><g id="freepik--speech-bubble--inject-470"><path d="M409.52,97.24a42.83,42.83,0,0,1-68.37,34.39l-21,5.36,8.74-19.54a42.84,42.84,0,1,1,80.62-20.21Z" style="fill:#fff"></path><path d="M409.52,97.24a43.18,43.18,0,0,1-16.1,33.53c-14.86,12.16-37.1,12.71-52.48,1.15l.3.06-21,5.44-.88.23.37-.84,8.7-19.56,0,.43c-13.36-24.47.58-55.8,27.72-62.22,26.74-6.87,53.55,14.23,53.32,41.78Zm0,0C409.63,69.76,383,48.88,356.33,56c-19.06,4.59-32.95,23.28-32,42.83a42.69,42.69,0,0,0,5.1,18.61l-.1.22-8.78,19.52-.51-.6,21-5.28.17,0,.14.1A43.39,43.39,0,0,0,351.6,137a42.66,42.66,0,0,0,57.92-39.79Z" style="fill:#263238"></path><path d="M362.08,106.36V72.55a4.64,4.64,0,0,1,4.6-4.6,4.56,4.56,0,0,1,4.52,4.6v33.81a4.51,4.51,0,0,1-4.52,4.6A4.59,4.59,0,0,1,362.08,106.36Zm4.6,20.17a4.59,4.59,0,0,1-4.6-4.6v-1.68a4.64,4.64,0,0,1,4.6-4.6,4.56,4.56,0,0,1,4.52,4.6v1.68A4.51,4.51,0,0,1,366.68,126.53Z" style="fill:#97071f"></path></g><g id="freepik--Table--inject-470"><path d="M52.85,451c126.3-.61,268-.61,394.3,0-126.3.62-268,.62-394.3,0Z" style="fill:#263238"></path></g><g id="freepik--Cockroach--inject-470"><path d="M389.37,439.9a69.29,69.29,0,0,1-13-5c-4.4-2.16-8.25-5.54-6.78-10.9-1,5.19,2.8,8.35,7.06,10.36a126.28,126.28,0,0,0,12.69,5.51Z" style="fill:#263238"></path><path d="M364.84,453.33c3.9-7.51,12.21-12.1,20.52-12.54,1.19-.06,2.39,0,3.57,0-1.18.12-2.37.12-3.54.28a28.09,28.09,0,0,0-20.55,12.25Z" style="fill:#263238"></path><path d="M393,445.05a43.48,43.48,0,0,0,6.61,3.87c.25.05,2.37-.08,2.69-.65.11-.18.51-1,.36-1.15-.37-.45-8.43-3.31-8.94-3.46a2.56,2.56,0,0,0-1.3-.09C392.25,443.68,392.78,444.81,393,445.05Z" style="fill:#263238"></path><path d="M400.82,442.82c-.38.25,0,3.69.19,4s1.32.91,1.55.72a7.61,7.61,0,0,0,.88-2.82C403.39,444.13,401.08,442.64,400.82,442.82Z" style="fill:#263238"></path><path d="M392.4,443.57c-.49.41-1.93,6.71-1.9,7s.24.45.44.08,2.39-4.29,2.49-4.74a2.36,2.36,0,0,0,0-1.21C393.33,444.42,392.62,443.39,392.4,443.57Z" style="fill:#263238"></path><path d="M390.58,450.45c-.28,0-2.71.35-2.89.44s-.08.29.15.29,2.79-.22,2.9-.27S390.84,450.44,390.58,450.45Z" style="fill:#263238"></path><g style="opacity:0.30000000000000004"><path d="M393,445.05a43.48,43.48,0,0,0,6.61,3.87c.25.05,2.37-.08,2.69-.65.11-.18.51-1,.36-1.15-.37-.45-8.43-3.31-8.94-3.46a2.56,2.56,0,0,0-1.3-.09C392.25,443.68,392.78,444.81,393,445.05Z"></path><path d="M400.82,442.82c-.38.25,0,3.69.19,4s1.32.91,1.55.72a7.61,7.61,0,0,0,.88-2.82C403.39,444.13,401.08,442.64,400.82,442.82Z"></path><path d="M392.4,443.57c-.49.41-1.93,6.71-1.9,7s.24.45.44.08,2.39-4.29,2.49-4.74a2.36,2.36,0,0,0,0-1.21C393.33,444.42,392.62,443.39,392.4,443.57Z"></path><path d="M390.58,450.45c-.28,0-2.71.35-2.89.44s-.08.29.15.29,2.79-.22,2.9-.27S390.84,450.44,390.58,450.45Z"></path></g><path d="M407.49,450.31a37.5,37.5,0,0,0,3.07-2.71c.13-.29-2.23-.69-2.61-.53a16,16,0,0,0-2.4,3.88C405.67,451.13,407.28,450.46,407.49,450.31Z" style="fill:#263238"></path><path d="M412.38,453.1c-.61-.2-6.75-1.83-6.83-2.15s1.32-.73,1.94-.64a40.53,40.53,0,0,1,5.08,2.35C412.75,452.83,412.64,453.18,412.38,453.1Z" style="fill:#263238"></path><path d="M413.27,456.21c.14.32.43.24.35-.09s-.83-3.12-1-3.32-.35,0-.28.3S413.22,456.07,413.27,456.21Z" style="fill:#263238"></path><g style="opacity:0.30000000000000004"><path d="M407.49,450.31a37.5,37.5,0,0,0,3.07-2.71c.13-.29-2.23-.69-2.61-.53a16,16,0,0,0-2.4,3.88C405.67,451.13,407.28,450.46,407.49,450.31Z"></path><path d="M412.38,453.1c-.61-.2-6.75-1.83-6.83-2.15s1.32-.73,1.94-.64a40.53,40.53,0,0,1,5.08,2.35C412.75,452.83,412.64,453.18,412.38,453.1Z"></path><path d="M413.27,456.21c.14.32.43.24.35-.09s-.83-3.12-1-3.32-.35,0-.28.3S413.22,456.07,413.27,456.21Z"></path></g><path d="M392.53,440c-.44.9.56,2.24,2.54,4.08s3.47,2.18,3.81,2.06a5.08,5.08,0,0,0,2.81,1.47,4.78,4.78,0,0,0,3.23.8,3.11,3.11,0,0,0,2.31.34,2.7,2.7,0,0,0,1.87.12,5.66,5.66,0,0,0,2.67,0,6.12,6.12,0,0,0,2.73-.21,4.58,4.58,0,0,0,2.82-.33,7,7,0,0,0,3.42-.75s3.26-.4,3.47-1.3c0,0,2.23-1,2.05-2-.31-1.88-8.54-5-17.78-5.78C398.7,437.62,393.34,438.29,392.53,440Z" style="fill:#97071f"></path><path d="M392.53,440c-.44.9.56,2.24,2.54,4.08s3.47,2.18,3.81,2.06a5.08,5.08,0,0,0,2.81,1.47,4.78,4.78,0,0,0,3.23.8,3.11,3.11,0,0,0,2.31.34,2.7,2.7,0,0,0,1.87.12,5.66,5.66,0,0,0,2.67,0,6.12,6.12,0,0,0,2.73-.21,4.58,4.58,0,0,0,2.82-.33,7,7,0,0,0,3.42-.75s3.26-.4,3.47-1.3c0,0,2.23-1,2.05-2-.31-1.88-8.54-5-17.78-5.78C398.7,437.62,393.34,438.29,392.53,440Z" style="opacity:0.2"></path><path d="M414.9,449.7c-.95-.24-4-2.46-3.95-2.86s2.26-.62,2.55-.55a19.44,19.44,0,0,1,2.8,2.87C416.34,449.4,415.52,449.86,414.9,449.7Z" style="fill:#263238"></path><path d="M415,449.36a9.12,9.12,0,0,0,.38,3c.21.55.31.61.5.48a2.82,2.82,0,0,0,.6-1.29,8.49,8.49,0,0,0-.16-2.42C416.11,448.8,415.39,448.72,415,449.36Z" style="fill:#263238"></path><path d="M415.76,452.92c.2.46,8.95,2.74,9.39,2.8s.81-.1.49-.36-8.82-3.52-9.1-3.58S415.65,452.69,415.76,452.92Z" style="fill:#263238"></path><path d="M425.4,455.73c.19.17,3.31,2.51,3.39,2.54s1.54-.23,1.56-.23.2.21.24.21.13-.05.12-.11a.79.79,0,0,0-.33-.4c-.15,0-1.48.24-1.5.22s-3.11-2.48-3.18-2.48S425.33,455.66,425.4,455.73Z" style="fill:#263238"></path><path d="M416.58,446.73c-.2.27.67,3.26.9,3.64s.38.56.55.46a1.82,1.82,0,0,0,.37-1.21,22,22,0,0,0,.05-2.78C418.36,446.43,416.85,446.38,416.58,446.73Z" style="fill:#263238"></path><path d="M417.9,450.85c.44.28,8.53,1.2,9.34,1.24.43,0,.42-.44,0-.56s-8.37-1.78-8.87-1.82S417.64,450.68,417.9,450.85Z" style="fill:#263238"></path><path d="M427.34,452.05a40,40,0,0,0,3.58,2,14.7,14.7,0,0,0,1.38-.54c.07,0,.35.2.39.19s.07-.14,0-.19-.33-.31-.44-.3-1.22.49-1.26.5-3.41-2-3.5-1.94S427.31,452,427.34,452.05Z" style="fill:#263238"></path><path d="M403,452c.45-.17,4.13-2.26,4.62-3,.26-.43-.85-1.87-1.41-1.79s-3.69,3.35-4,3.79a2.58,2.58,0,0,0-.52,1.19C401.76,452.35,402.72,452.12,403,452Z" style="fill:#263238"></path><path d="M403.43,446.13c-.14.42,2.18,3,2.53,3.08s1.61-.06,1.68-.36a7.61,7.61,0,0,0-1-2.79C406.28,445.64,403.54,445.83,403.43,446.13Z" style="fill:#263238"></path><path d="M401.71,452.17c.22.6,5.68,4.06,6,4.14s.5-.08.22-.39-3.24-3.68-3.64-3.92a2.2,2.2,0,0,0-1.13-.42C402.82,451.59,401.62,451.91,401.71,452.17Z" style="fill:#263238"></path><path d="M407.58,456.24c-.06.33-.27,3.22-.23,3.44s.27.18.32-.09.42-3.27.39-3.42A.26.26,0,0,0,407.58,456.24Z" style="fill:#263238"></path><path d="M391.82,449.06a43.57,43.57,0,0,0,7.42,1.91c.26,0,2.26-.73,2.42-1.36,0-.21.22-1.07,0-1.21-.48-.33-9-.87-9.54-.87a2.43,2.43,0,0,0-1.27.27C390.75,447.94,391.56,448.88,391.82,449.06Z" style="fill:#263238"></path><path d="M398.75,444.77c-.29.34,1,3.55,1.27,3.78s1.53.51,1.7.25a7.74,7.74,0,0,0,.07-2.95C401.59,445.32,399,444.53,398.75,444.77Z" style="fill:#263238"></path><path d="M390.87,447.8c-.37.53,0,7,.1,7.28s.35.36.44,0,1.12-4.78,1.09-5.25a2.25,2.25,0,0,0-.32-1.16C392,448.37,391,447.57,390.87,447.8Z" style="fill:#263238"></path><path d="M391,454.94c-.24.22-2.14,2.41-2.25,2.62s.11.3.32.11,2.29-2.37,2.36-2.5S391.17,454.73,391,454.94Z" style="fill:#263238"></path><path d="M399,437.72,397.54,445A41,41,0,0,0,410.21,447c7.88.12,16.39-1.22,16.83-3.7s-9.78-4.47-14.66-5.2A59.26,59.26,0,0,0,399,437.72Z" style="fill:#97071f"></path><path d="M399,437.72,397.54,445A41,41,0,0,0,410.21,447c7.88.12,16.39-1.22,16.83-3.7s-9.78-4.47-14.66-5.2A59.26,59.26,0,0,0,399,437.72Z" style="opacity:0.4"></path><g style="opacity:0.1"><path d="M397.67,444.5c9.23,1.41,18.92,2.74,28.05.19-9,2.92-18.9,1.59-28.05-.19Z"></path><path d="M398.94,438.05a67.18,67.18,0,0,1,26.26,3.23,85,85,0,0,0-26.26-3.23Z"></path><path d="M397.79,443.79c8.42.88,17,1.92,25.43.93a18,18,0,0,0,3.53-.85c-4.56,1.8-9.63,1.49-14.45,1.44a133.12,133.12,0,0,1-14.51-1.52Z"></path><path d="M398.93,438.68c9.17-.19,18.62.19,27.34,3.24-8.83-2.68-18.17-3.05-27.34-3.24Z"></path><path d="M398.37,440.87q14.36.76,28.66,2.08-14.34-.75-28.66-2.08Z"></path><path d="M398.07,442.76c9.57.89,19.24,1.87,28.84.87-9.56,1.37-19.32.39-28.84-.87Z"></path><path d="M398.24,441.75c8.5.42,20.41,1.69,28.8,1.5-9.6.5-19.24-.63-28.8-1.5Z"></path><path d="M398.67,439.38c9.35,0,18.82.48,27.9,2.8-9.16-1.95-18.55-2.44-27.9-2.8Z"></path><path d="M398.51,440.18a171.6,171.6,0,0,1,28.26,2.33c-9.39-1.12-18.8-2-28.26-2.33Z"></path></g><path d="M399,437.72a40.58,40.58,0,0,1-.26,6.64c-.11.46-1.2.67-1.2.67a1.68,1.68,0,0,1-1.56.73,14.89,14.89,0,0,1-5-1.88c-.28-.15-.21-4.61.08-5.3a22.37,22.37,0,0,1,5-1.38A4.24,4.24,0,0,1,399,437.72Z" style="fill:#97071f"></path><path d="M399,437.72a40.58,40.58,0,0,1-.26,6.64c-.11.46-1.2.67-1.2.67a1.68,1.68,0,0,1-1.56.73,14.89,14.89,0,0,1-5-1.88c-.28-.15-.21-4.61.08-5.3a22.37,22.37,0,0,1,5-1.38A4.24,4.24,0,0,1,399,437.72Z" style="opacity:0.2"></path><path d="M398.74,444.36c-.11.47-1.2.68-1.2.68a1.7,1.7,0,0,1-1.56.72,14.6,14.6,0,0,1-5-1.88c1.35.7,5.11,1,5.78.16a4.24,4.24,0,0,0,1.28-.4c.46-.28.78-2.52,1-3.57A23.39,23.39,0,0,1,398.74,444.36Z" style="opacity:0.2"></path><path d="M391.76,439.23c-.22-.41,2.56-1.33,3.73-1.54a4.18,4.18,0,0,1,2.52.19c.07.18-1.45.77-2,.69S391.9,439.49,391.76,439.23Z" style="fill:#fff;opacity:0.2"></path><path d="M391,443.88s-.26.25-.89-.2-2.06-2.93-1.51-4.15,2.48-.95,2.48-.95A24.47,24.47,0,0,0,391,443.88Z" style="fill:#97071f"></path><path d="M391,443.88s-.26.25-.89-.2-2.06-2.93-1.51-4.15,2.48-.95,2.48-.95A24.47,24.47,0,0,0,391,443.88Z" style="opacity:0.6000000000000001"></path><path d="M389.19,439.2c-.4.15-.44,1.05-.25,1.4s.82-.87.77-1.17S389.51,439.09,389.19,439.2Z" style="fill:#fff;opacity:0.2"></path></g></svg>
